<?xml version="1.0" encoding="utf-8"?>
<!-- Generator: Adobe Illustrator 28.0.0, SVG Export Plug-In . SVG Version: 6.00 Build 0)  -->
<svg version="1.1" id="Capa_1" xmlns="http://www.w3.org/2000/svg" xmlns:xlink="http://www.w3.org/1999/xlink" x="0px" y="0px"
	 viewBox="0 0 120 50" style="enable-background:new 0 0 120 50;" xml:space="preserve">
<style type="text/css">
	.st1{fill:#959595;}
</style>
<g>
	<path class="st1" d="M69.5,3.5c0.2,0.4,0.4,0.7,0.6,1.1c1.3,2.2,2.6,4.4,3.8,6.7c1.4,2.3,2.7,4.7,4.1,7c1.3,2.2,2.6,4.4,3.8,6.6
		c2.3,4,4.6,8,7,12.1c1.3,2.3,2.7,4.7,4.1,7c0.4,0.7,0.9,1.5,1.3,2.2c0.1,0.2,0.1,0.3-0.2,0.3c-5.7,0-11.4,0-17.2,0
		c-0.2,0-0.3-0.1-0.4-0.2c-2.2-3.8-4.4-7.6-6.5-11.4c-2.1-3.7-4.2-7.3-6.3-11c-2-3.5-4-7-6-10.5c-0.4-0.7-0.8-1.4-1.2-2.1
		c-0.1-0.2-0.1-0.2,0.1-0.3c4.1-2.3,8.2-4.7,12.2-7.1C68.9,3.8,69.2,3.7,69.5,3.5z"/>
	<path class="st1" d="M54.2,18.1c5.5,9.4,10.9,18.9,16.4,28.3c-0.1,0-0.2,0-0.3,0c-5.8,0-11.5,0-17.3,0c-0.2,0-0.2-0.1-0.3-0.2
		c-2.5-4.4-5.1-8.8-7.6-13.2c-1.4-2.4-2.7-4.7-4.1-7.1c-0.2-0.3-0.2-0.3,0.1-0.4c3-1.8,6.1-3.5,9.1-5.3c1.2-0.7,2.5-1.4,3.7-2.1
		C54.1,18.2,54.2,18.2,54.2,18.1z"/>
	<path class="st1" d="M47,46.5c-0.1,0-0.2,0-0.3,0c-5.7,0-11.4,0-17.2,0c-0.2,0-0.2-0.1-0.3-0.2c-1.1-1.9-2.2-3.8-3.3-5.7
		c0,0,0-0.1-0.1-0.2c0.3-0.2,0.7-0.4,1-0.6c3.6-2.1,7.3-4.2,10.9-6.3c0.4-0.2,0.8-0.4,1.1-0.7c0.2-0.1,0.2-0.1,0.3,0.1
		c0.6,1.1,1.2,2.1,1.8,3.2c1.3,2.2,2.5,4.4,3.8,6.6c0.7,1.2,1.4,2.4,2.1,3.6C46.9,46.3,46.9,46.4,47,46.5z"/>
</g>
</svg>
