<svg xmlns="http://www.w3.org/2000/svg" viewBox="0 0 120 50"><defs><style>.cls-1{fill:none;}.cls-2{fill:#959595;}</style></defs><g id="Capa_2" data-name="Capa 2"><g id="Capa_1-2" data-name="Capa 1"><rect class="cls-1" width="120" height="50"/><path class="cls-2" d="M40.84,22c-4.13,0-8.68,2.53-11.54,4.92l.23.33c4.43-3.11,10.58-5.13,12.28-2.1.9,1.6-.62,4.83-2.77,7.39.52-1.13.18-3.3-2.81-3.3-5,0-14.73,6.58-14.73,13.31,0,2.69,1.87,4.45,4.95,4.45,8.24,0,19.42-13.51,19.42-20.3C45.87,24.25,44.49,22,40.84,22ZM29.27,39.68a1.73,1.73,0,0,1-1.75-2.36c.74-2.63,5.48-6.53,8.72-6.53,2.36,0,2.18,2.11.8,3.91l-.77.85C33.53,38.24,31,39.68,29.27,39.68Z"/><path class="cls-2" d="M59.08,29.09a3.87,3.87,0,0,0-2.87-1.35H51.39l-.82,3.05h4.55l.43,0a1,1,0,0,1,.65.36,1.32,1.32,0,0,1,.08,1.15l-.21.8H53.2c-2.46,0-5.9,1.77-6.67,4.63a3.89,3.89,0,0,0,.7,3.57,4.67,4.67,0,0,0,3.61,1.39h6l1.58-5.9,1.17-4.34A3.63,3.63,0,0,0,59.08,29.09ZM51.45,39.68a1.43,1.43,0,0,1-1.13-.47A1.41,1.41,0,0,1,50.11,38a2.65,2.65,0,0,1,2.5-1.81h2.65l-.95,3.53Z"/><path class="cls-2" d="M92.2,27.74a5.8,5.8,0,0,0-3.5,1.11,4.81,4.81,0,0,0-1.87,2.85c-.71,2.64,1.37,3.92,3,4.83,1.2.65,2.23,1.21,2,2-.16.59-.42,1.11-1.89,1.11H85.48l-.81,3h5a5.63,5.63,0,0,0,3.56-1,5.51,5.51,0,0,0,1.91-3.13,3.45,3.45,0,0,0-.69-3.31A9.21,9.21,0,0,0,92,33.54c-1.08-.58-2.1-1.12-1.92-1.79a1.35,1.35,0,0,1,1.38-1h4.38l.81-3.05Z"/><path class="cls-2" d="M66.07,27.74a5.82,5.82,0,0,0-3.5,1.11,4.87,4.87,0,0,0-1.88,2.85c-.7,2.64,1.38,3.92,3.05,4.83,1.2.65,2.23,1.21,2,2-.16.59-.42,1.11-1.89,1.11H59.35l-.81,3h5a5.63,5.63,0,0,0,3.56-1A5.51,5.51,0,0,0,69,38.56a3.45,3.45,0,0,0-.69-3.31,9.06,9.06,0,0,0-2.46-1.71c-1.08-.58-2.1-1.12-1.92-1.79a1.35,1.35,0,0,1,1.38-1h4.37l.82-3.05Z"/><path class="cls-2" d="M72.87,27.74,69,42.73h3.3l3.91-15Z"/><path class="cls-2" d="M85,27.74a9.81,9.81,0,0,0-9.82,7.49c-1.14,4.28,1.13,7.5,5.3,7.5h2.79l.82-3H81.25c-1.56,0-3.7-1.22-2.84-4.45a6.18,6.18,0,0,1,5.92-4.44H86.1l.82-3.05Z"/><path class="cls-2" d="M97.91,40.32a1.24,1.24,0,0,1,.38.91,1.26,1.26,0,0,1-.38.92,1.24,1.24,0,0,1-.91.38,1.28,1.28,0,0,1-1.29-1.3,1.29,1.29,0,0,1,2.2-.91Zm.15-.15A1.46,1.46,0,0,0,97,39.74a1.5,1.5,0,0,0-1.06,2.55,1.45,1.45,0,0,0,1.07.45,1.52,1.52,0,0,0,1.5-1.51A1.46,1.46,0,0,0,98.06,40.17Zm-.84,1a.66.66,0,0,1-.28,0h-.26v-.6h.25a.76.76,0,0,1,.35.06.3.3,0,0,1-.06.5Zm-.83.89h.29V41.4h.23a.78.78,0,0,1,.32.05.4.4,0,0,1,.16.38v.22h.27v0a.14.14,0,0,1,0-.09V41.7a.43.43,0,0,0-.09-.25.41.41,0,0,0-.29-.17.52.52,0,0,0,.24-.08.34.34,0,0,0,.16-.32.41.41,0,0,0-.25-.42A1.28,1.28,0,0,0,97,40.4h-.58v1.65"/></g></g></svg>