<svg xmlns="http://www.w3.org/2000/svg" viewBox="0 0 120 50"><defs><style>.cls-1{fill:none;}.cls-2{fill:#959595;}</style></defs><g id="Capa_2" data-name="Capa 2"><g id="Capa_1-2" data-name="Capa 1"><rect class="cls-1" width="120" height="50"/><path class="cls-2" d="M45.87,25.68H68a4.68,4.68,0,0,0,4.17-2.54l3.19-6.23H55Z"/><path class="cls-2" d="M67.51,7.5a6.42,6.42,0,0,0-4.45,1.8L58.3,13.89H76.74L79.88,7.5Z"/><path class="cls-2" d="M72.34,24.85h-.28l0-.19h.8l0,.19h-.28l-.1.78h-.24Z"/><path class="cls-2" d="M73.81,25.26c0-.11,0-.26,0-.4h0c0,.13-.11.27-.16.38l-.18.38h-.18l-.07-.38c0-.11,0-.25-.05-.38h0c0,.13,0,.28-.07.41l-.06.36h-.22l.19-1h.31l.06.33c0,.11,0,.23,0,.34h0c0-.11.1-.24.15-.34l.15-.33h.31l-.07,1h-.23Z"/><path class="cls-2" d="M101.24,30.75a.09.09,0,0,0-.08,0H91.48a.1.1,0,0,0-.1.08l-.57,2.4a.1.1,0,0,0,0,.09.12.12,0,0,0,.08,0h2l-2.15,9a.1.1,0,0,0,0,.09.09.09,0,0,0,.08,0h3.58a.12.12,0,0,0,.11-.08l2.16-9.1h3.9a.11.11,0,0,0,.1-.08l.57-2.4A.1.1,0,0,0,101.24,30.75Z"/><path class="cls-2" d="M79.34,30.75a.09.09,0,0,0-.08,0H75.68a.1.1,0,0,0-.1.08L72.82,42.37a.1.1,0,0,0,0,.09.09.09,0,0,0,.08,0h3.59a.11.11,0,0,0,.1-.08l2.75-11.58A.1.1,0,0,0,79.34,30.75Z"/><path class="cls-2" d="M91.24,34.21A3.64,3.64,0,0,0,88.32,33H80a.1.1,0,0,0-.1.08l-.5,2a.1.1,0,0,0,0,.09.09.09,0,0,0,.08,0h7a1.27,1.27,0,0,1,1.06.36,1.17,1.17,0,0,1,.11,1h-5c-2.27,0-3.42.37-4.39,1.41a4.83,4.83,0,0,0-.83,2.33A1.84,1.84,0,0,0,78,41.71a3.39,3.39,0,0,0,2.43.79h9.72a.1.1,0,0,0,.1-.08l1.46-6.11A2.42,2.42,0,0,0,91.24,34.21Zm-4.36,6H82.8c-.76,0-1.2-.1-1.36-.3a.36.36,0,0,1,0-.33c.16-.61.63-.7,1.29-.7h4.51Z"/><path class="cls-2" d="M73.83,36.31a2.44,2.44,0,0,0-.47-2.11A3.65,3.65,0,0,0,70.45,33H64.79A3.76,3.76,0,0,0,61,36l-.82,3.43a2,2,0,0,0,.43,1.71,3.76,3.76,0,0,0,2.79,1.34h6a3.73,3.73,0,0,0,2.48-.9,4.05,4.05,0,0,0,1.28-2.15ZM70.18,37l-.35,1.46c-.19.79-.74,1.16-1.75,1.16H65.21a1.61,1.61,0,0,1-1.3-.5.92.92,0,0,1-.16-.83L64.08,37a1.6,1.6,0,0,1,1.75-1.27h2.82a1.68,1.68,0,0,1,1.36.53A.93.93,0,0,1,70.18,37Z"/><path class="cls-2" d="M60.07,34.21A3.62,3.62,0,0,0,57.16,33H52.29l.49-2a.15.15,0,0,0,0-.09.1.1,0,0,0-.09,0H49.06a.12.12,0,0,0-.11.08c-.38,1.62-.77,3.27-1.15,4.87-.52,2.17-1,4.41-1.58,6.62a.15.15,0,0,0,0,.09.11.11,0,0,0,.09,0H56a3.73,3.73,0,0,0,2.48-.9,4.11,4.11,0,0,0,1.28-2.15l.75-3.14A2.42,2.42,0,0,0,60.07,34.21ZM56.29,37l-.35,1.46c-.19.79-.74,1.16-1.74,1.16H50.7c.31-1.32.63-2.65.95-4h3.11a1.71,1.71,0,0,1,1.36.53A.93.93,0,0,1,56.29,37Z"/><path class="cls-2" d="M46.74,34.21A3.63,3.63,0,0,0,43.82,33H35.55a.11.11,0,0,0-.11.08l-.5,2a.1.1,0,0,0,0,.09.09.09,0,0,0,.08,0h7a1.31,1.31,0,0,1,1.07.36,1.21,1.21,0,0,1,.1,1h-5c-2.27,0-3.42.37-4.4,1.41a3.64,3.64,0,0,0-.57,1.12,3,3,0,0,0-1.83-2.44c1.55-1,2.46-2,2.53-2.94a2.47,2.47,0,0,0-.67-1.87,4.48,4.48,0,0,0-3.33-1.16H21.6a.1.1,0,0,0-.1.08L18.74,42.37a.1.1,0,0,0,0,.09.09.09,0,0,0,.08,0h8.67a8.49,8.49,0,0,0,3.65-.69A3.67,3.67,0,0,0,33,40.09a2.32,2.32,0,0,0,0,.24,1.84,1.84,0,0,0,.53,1.38,3.39,3.39,0,0,0,2.43.79h9.72a.11.11,0,0,0,.11-.08l1.45-6.11A2.42,2.42,0,0,0,46.74,34.21ZM28.59,39.08c-.23.68-1,1.08-2.13,1.08H23.79l.56-2.34h2.81a1.67,1.67,0,0,1,1.36.49A.82.82,0,0,1,28.59,39.08Zm1.15-4.83c-.23.68-1,1.09-2.13,1.09H24.94l.53-2.25h2.82a1.7,1.7,0,0,1,1.39.46A.76.76,0,0,1,29.74,34.25Zm12.64,6H38.3c-.76,0-1.2-.1-1.36-.3a.36.36,0,0,1,0-.33c.16-.61.62-.7,1.28-.7H42.7Z"/><path class="cls-2" d="M96.6,41.56h-.28l0-.18h.8l0,.18h-.29l-.09.79H96.5Z"/><path class="cls-2" d="M98.07,42c0-.12,0-.26,0-.4h0c0,.12-.11.26-.17.38l-.17.37h-.18L97.52,42c0-.11,0-.25,0-.38h0c0,.13,0,.28-.07.4l-.06.37h-.22l.19-1h.31l.06.32c0,.11,0,.24,0,.35h0c0-.11.1-.24.14-.35l.16-.32h.3l-.06,1H98Z"/></g></g></svg>