<svg xmlns="http://www.w3.org/2000/svg" viewBox="0 0 120 50"><defs><style>.cls-1{fill: none;}.cls-2{fill:#959595;}</style></defs><g id="Capa_2" data-name="Capa 2"><g id="Capa_1-2" data-name="Capa 1"><rect class="cls-1" width="120" height="50"/><path class="cls-2" d="M54.11,30.66A9.26,9.26,0,0,1,50,29.94a5.62,5.62,0,0,1-3.69-5.31,9.9,9.9,0,0,1,.92-4.26,19.94,19.94,0,0,1,4.06-5.89A31,31,0,0,1,63.19,6.79a19.74,19.74,0,0,1,7.57-1.27A9,9,0,0,1,75.12,6.7a5.64,5.64,0,0,1,2.77,5.58,12.67,12.67,0,0,1-2.35,6.18A26.08,26.08,0,0,1,69.17,25,29.91,29.91,0,0,1,59,30,17,17,0,0,1,54.11,30.66Zm-4.62-7a.66.66,0,0,0,0,.13,1,1,0,0,0,0,.16,5.47,5.47,0,0,0,3.81,4.51,10.45,10.45,0,0,0,5.6.25,20.09,20.09,0,0,0,7.24-3A19.08,19.08,0,0,0,73,18.12,10.61,10.61,0,0,0,74.23,13a5.53,5.53,0,0,0-4.09-5.27,10.9,10.9,0,0,0-5.38-.14,21.39,21.39,0,0,0-8.89,4.19l-.18.11.05.09H68.58a4.44,4.44,0,0,1,2.12.46,1.45,1.45,0,0,1,.76,1.9,3.88,3.88,0,0,1-.5,1,5.82,5.82,0,0,1-4,2.15c-.18,0-.35.06-.53.09v.12c.13.05.25.11.39.15A1.55,1.55,0,0,1,67.9,20a4.08,4.08,0,0,1-1.59,1.89,11.05,11.05,0,0,1-5.9,1.72c-3.53,0-7.06,0-10.59,0Zm-.05-1.78h.39c2.44,0,4.88,0,7.33,0a12.08,12.08,0,0,0,1.47-.09,5,5,0,0,0,2.61-1.08,1.83,1.83,0,0,0,.66-1.83.67.67,0,0,0-.75-.6H50.74a.29.29,0,0,0-.32.22c-.24.71-.5,1.4-.72,2.11C49.58,21,49.53,21.38,49.44,21.84Zm1.87-5.1h.23c3.26,0,6.52,0,9.79,0a3.9,3.9,0,0,0,2.14-.63,2.43,2.43,0,0,0,1.14-1.38,1,1,0,0,0-.91-1.35H54.21a.52.52,0,0,0-.33.14c-.5.55-1,1.1-1.48,1.68S51.7,16.19,51.31,16.74Z"/><path class="cls-2" d="M32.8,39l.28.21a1.3,1.3,0,0,1,.39,1.65A4.13,4.13,0,0,1,31,43.11a8.55,8.55,0,0,1-2.69.47H20.68l.13-.22,5.49-8.49a.33.33,0,0,1,.31-.19c2,0,4.08,0,6.12,0a5.15,5.15,0,0,1,2,.35,1.37,1.37,0,0,1,.76,2,3.35,3.35,0,0,1-1.92,1.72A7.43,7.43,0,0,1,32.8,39Zm-7.7,3.21h2.48a2.72,2.72,0,0,0,.75-.11,2.14,2.14,0,0,0,1.54-1.35.61.61,0,0,0-.36-.86,1.81,1.81,0,0,0-.6-.14c-.69,0-1.38,0-2.07,0a.28.28,0,0,0-.2.1Zm2.43-3.76h2.14a2.11,2.11,0,0,0,.35,0,2.51,2.51,0,0,0,1.6-1.19.7.7,0,0,0,.16-.76c-.15-.29-.45-.31-.74-.31a11.62,11.62,0,0,1-1.45,0,.82.82,0,0,0-.93.5C28.33,37.18,27.94,37.75,27.53,38.4Z"/><path class="cls-2" d="M55.68,42.87c-.64,1-1.3,2-1.88,3a1.12,1.12,0,0,1-1.21.66c-.84-.05-1.69,0-2.54,0h-.28l.26-.41L55.89,37a.33.33,0,0,1,.33-.19H59.5l-.19.34.22-.08a5.46,5.46,0,0,1,2.68-.4,2.45,2.45,0,0,1,.65.15,1.16,1.16,0,0,1,.8,1.55,5.91,5.91,0,0,1-.56,1.26,12.67,12.67,0,0,1-2.25,3,4.18,4.18,0,0,1-4,1A2,2,0,0,1,55.68,42.87ZM57,42.3a1.31,1.31,0,0,0,1.16-.55c.74-1.14,1.47-2.28,2.2-3.42.19-.3.13-.44-.2-.53a1.43,1.43,0,0,0-1.57.64c-.75,1.14-1.47,2.3-2.21,3.45-.11.15,0,.26.1.31A4.35,4.35,0,0,0,57,42.3Z"/><path class="cls-2" d="M80,37.4c.52-.81,1-1.56,1.51-2.34a.77.77,0,0,1,.78-.42c1,0,2,0,3.08,0l-.09.17-5.54,8.57a.28.28,0,0,1-.27.18H76.27l.25-.53-.18.08a4.85,4.85,0,0,1-3.08.55h0a1.31,1.31,0,0,1-1.1-2,10.2,10.2,0,0,1,1-1.77A17.76,17.76,0,0,1,74.54,38a4.29,4.29,0,0,1,3.61-1.46c.22,0,.43,0,.64.07A1.57,1.57,0,0,1,80,37.4Zm-1.29.33a1.32,1.32,0,0,0-1.18.68c-.24.43-.52.83-.78,1.25-.45.71-.91,1.42-1.35,2.14-.15.24-.11.35.14.41a1.51,1.51,0,0,0,1.7-.61c.67-1.09,1.36-2.16,2-3.24a.34.34,0,0,0-.17-.55A1.69,1.69,0,0,0,78.75,37.73Z"/><path class="cls-2" d="M45.73,36.78l-.31.48-3.94,6.13a.32.32,0,0,1-.32.18H38l.2-.45-.12,0a5.69,5.69,0,0,1-3.32.55l-.08,0a1.16,1.16,0,0,1-1-1.75,5.07,5.07,0,0,1,.47-.93c.85-1.36,1.72-2.71,2.59-4.06a.35.35,0,0,1,.23-.15h3.35l.12,0-.15.23L37.6,41.28a3.6,3.6,0,0,0-.26.52c-.1.26,0,.45.32.48a1.15,1.15,0,0,0,1-.31,5.58,5.58,0,0,0,.84-1c.86-1.32,1.7-2.67,2.54-4a.37.37,0,0,1,.37-.2h3.36Z"/><path class="cls-2" d="M70.67,43.61h-4l.25-.62c-.42.18-.82.36-1.23.5a5.15,5.15,0,0,1-2.83.2c-1-.22-1.24-.83-.76-1.71a4.08,4.08,0,0,1,3.1-2.16l4-.71a.57.57,0,0,0,.45-.27c.13-.21.28-.4.42-.61s.11-.36-.17-.43a1.47,1.47,0,0,0-1.33.25c-.23.18-.42.42-.63.62a.43.43,0,0,1-.19.13l-3.21,0-.1,0A3.52,3.52,0,0,1,66.47,37a12.3,12.3,0,0,1,5.69-.17,2.47,2.47,0,0,1,.85.37.8.8,0,0,1,.33,1,3,3,0,0,1-.35.69c-.82,1.28-1.66,2.55-2.49,3.83l-.07.11c-.22.39-.2.49.13.69Zm-2-3.3,0-.06c-.59.14-1.18.28-1.77.44a1.58,1.58,0,0,0-1,1c-.18.39,0,.62.41.52a13.3,13.3,0,0,0,1.39-.46.28.28,0,0,0,.09-.07Z"/><path class="cls-2" d="M90.85,41.29a4.32,4.32,0,0,1-2.67,2.13,10.54,10.54,0,0,1-5.35.09,2.5,2.5,0,0,1-.64-.25,1,1,0,0,1-.55-1.46,10.36,10.36,0,0,1,.8-1.51c.4-.63.85-1.22,1.28-1.83A3.9,3.9,0,0,1,86,36.92a10.91,10.91,0,0,1,5-.13,3.08,3.08,0,0,1,1,.41.92.92,0,0,1,.39,1.13,4.26,4.26,0,0,1-.35.75c-.28.46-.59.91-.87,1.37a.38.38,0,0,1-.35.18l-3.83,0H85.89a.37.37,0,0,0-.24.14c-.25.42-.49.84-.73,1.27s-.09.43.23.49a1.54,1.54,0,0,0,1.64-.6,2.62,2.62,0,0,0,.24-.34.53.53,0,0,1,.59-.35C88.69,41.31,89.77,41.29,90.85,41.29Zm-4.29-1.88h1.75a.25.25,0,0,0,.16-.08c.25-.38.49-.76.72-1.15.11-.19,0-.31-.16-.38a1.54,1.54,0,0,0-1.19.11A3.76,3.76,0,0,0,86.56,39.41Z"/><path class="cls-2" d="M90.08,43.54l.13-.22,5.44-8.51a.32.32,0,0,1,.32-.17h3.35a1.65,1.65,0,0,1-.1.19L93.73,43.4a.35.35,0,0,1-.24.14H90.08Z"/><path class="cls-2" d="M56.44,34.67c-.58.91-1.13,1.77-1.69,2.63-1.29,2-2.59,4.05-3.89,6.08a.33.33,0,0,1-.33.19H47.17l.2-.33,5.37-8.38a.36.36,0,0,1,.35-.2h3.35Z"/><path class="cls-2" d="M51.71,34.68l-.78,1.23q-2.38,3.72-4.76,7.43a.42.42,0,0,1-.42.23h-3.3l.59-.93q2.49-3.9,5-7.8a.42.42,0,0,1,.25-.17c1.09,0,2.19,0,3.28,0Z"/></g></g></svg>