<svg xmlns="http://www.w3.org/2000/svg" viewBox="0 0 120 50"><defs><style>.cls-1{fill: none;}.cls-2{fill:#959595;}</style></defs><g id="Capa_2" data-name="Capa 2"><g id="Capa_1-2" data-name="Capa 1"><rect class="cls-1" width="120" height="50"/><g id="r-trademark1"><path id="r-trademark" class="cls-2" d="M54.77,29.19a1.21,1.21,0,0,1,.93.42,1.28,1.28,0,0,1,.31,1,1.25,1.25,0,0,1-1.13,1.09,1.21,1.21,0,0,1-1-.34,1.25,1.25,0,0,1-.39-1,1.23,1.23,0,0,1,.5-1,1.21,1.21,0,0,1,.75-.25Zm0,2.31a1,1,0,0,0,.67-1.83,1,1,0,0,0-1.36,0,1,1,0,0,0,.69,1.81Zm.64-.36h-.3l-.35-.54h-.17v.54h-.26V29.77a5,5,0,0,1,.55,0,.38.38,0,0,1,.36.39.37.37,0,0,1-.25.36Zm-.82-.76c.13,0,.29,0,.37-.1A.19.19,0,0,0,54.8,30h-.21Z"/></g><path class="cls-2" d="M51.39,4l8.4,7.63h-.2a9,9,0,0,0-9.23,8.8c0,3.34,2.52,8.65,9.29,8.65h.19l-8.21,7.54L79.33,20.5Zm9.37,24.63A8.24,8.24,0,1,1,69,20.4,8.24,8.24,0,0,1,60.76,28.63Z"/><path id="dunlop-d" class="cls-2" d="M57,16.91l-.88,1.81h1.15L55.83,21.8H54.76l-.82,1.88h9.85c2.42,0,4-2.39,4-4.33a2.17,2.17,0,0,0-2.21-2.43Zm3.82,1.83H63a.92.92,0,0,1,.78,1A2,2,0,0,1,62,21.8H59.4Z"/><path class="cls-2" d="M53.82,23.75l.89-2h1.07l1.35-2.93H56l1-2H65.6a2.25,2.25,0,0,1,2.28,2.51,4.38,4.38,0,0,1-4.09,4.41Zm1-1.87-.76,1.72h9.74c2.44,0,3.94-2.48,3.94-4.26A2.11,2.11,0,0,0,65.6,17H57l-.8,1.67h1.15l-1.48,3.23Zm4.47,0,1.46-3.23H63a1,1,0,0,1,.86,1,2.26,2.26,0,0,1-.61,1.62,1.9,1.9,0,0,1-1.24.56Zm1.55-3.08-1.31,2.92H62a1.74,1.74,0,0,0,1.13-.52,2.11,2.11,0,0,0,.57-1.51.86.86,0,0,0-.72-.88Z"/><g id="dunlop-text"><g id="r-trademark2"><path id="r-trademark-2" data-name="r-trademark" class="cls-2" d="M94.84,44.43a.71.71,0,0,1,.52.24.75.75,0,0,1,.18.58.72.72,0,0,1-.64.62.67.67,0,0,1-.55-.2.7.7,0,0,1-.22-.55.72.72,0,0,1,.29-.55.71.71,0,0,1,.42-.14Zm0,1.31a.58.58,0,0,0,.57-.53.58.58,0,0,0-1-.5.59.59,0,0,0,.39,1Zm.36-.21H95l-.2-.3h-.09v.3h-.15v-.77h.31a.23.23,0,0,1,.2.23.2.2,0,0,1-.14.2Zm-.46-.43c.07,0,.16,0,.21-.05a.11.11,0,0,0-.09-.16h-.12Z"/></g><path id="d" class="cls-2" d="M28.92,38.26l-.59,1.39h1.24l-2.14,4.78H26.11l-.6,1.38H35.56c2.68,0,4.36-4.9,4.36-5.76a1.75,1.75,0,0,0-1.45-1.79Zm6.36,1.38s.4.18.4.53-1.21,4.25-2.36,4.25h-2l2.18-4.78Z"/><path class="cls-2" d="M35.56,45.88H25.4l.66-1.53h1.32l2.08-4.62H28.21l.66-1.55h9.6A1.84,1.84,0,0,1,40,40.05C40,40.93,38.34,45.88,35.56,45.88Zm-9.93-.15h9.93c2.66,0,4.28-4.92,4.28-5.68a1.68,1.68,0,0,0-1.38-1.72H29l-.53,1.25h1.25L27.48,44.5H26.16Zm7.69-1.23H31.21l2.25-4.94h1.85a.72.72,0,0,1,.44.6C35.75,40.51,34.56,44.5,33.32,44.5Zm-1.88-.15h1.88c1,0,2.28-3.72,2.28-4.18,0-.27-.27-.42-.34-.46h-1.7Z"/><path id="u" class="cls-2" d="M41.39,38.25H48l-.54,1.38h-1.3s-1.12,2.68-1.58,3.8c-.07.17-.12,1,1.28,1a2.18,2.18,0,0,0,2-1.12l1.61-3.73H48.24l.61-1.38h4.34l-.6,1.38h-1.3a24.75,24.75,0,0,1-2.07,4.63c-.66.94-1.36,1.66-5.15,1.66-2.3,0-3.76,0-3.76-1.74,0,0,0-.34,0-.35l1.71-4.19H40.8Z"/><path class="cls-2" d="M44.07,46c-2.23,0-3.84,0-3.84-1.81,0,0,.06-.38.06-.38L42,39.71H40.68l.66-1.53h6.78l-.59,1.53H46.22l-1.56,3.76a.64.64,0,0,0,.09.52,1.29,1.29,0,0,0,1.12.42,2.14,2.14,0,0,0,1.92-1.08l1.55-3.62H48.12l.69-1.53h4.5l-.67,1.53h-1.3a24.72,24.72,0,0,1-2.05,4.59C48.58,45.3,47.8,46,44.07,46Zm-3.63-2.15s0,.34,0,.35c0,1.57,1.26,1.65,3.68,1.65,3.66,0,4.39-.65,5.09-1.63a25.72,25.72,0,0,0,2.06-4.61l0,0h1.3l.54-1.23H48.9l-.54,1.23h1.21l-1.65,3.83a2.28,2.28,0,0,1-2.05,1.17,1.38,1.38,0,0,1-1.25-.48.78.78,0,0,1-.1-.67c.46-1.12,1.58-3.8,1.58-3.8l0,0h1.3l.48-1.23H41.44l-.53,1.23h1.27Z"/><path id="n" class="cls-2" d="M50.72,45.81l.61-1.39h1.48l2-4.78H53.48l.57-1.38h4.7l2.33,4.54,1.36-3.15H61.22l.57-1.39h4.47l-.51,1.39H64.41l-2.68,6.18H58.57l-2.45-4.63-1.44,3.23h1.25l-.61,1.39Z"/><path class="cls-2" d="M61.78,45.89H58.53l-2.4-4.53-1.33,3H56l-.67,1.54H50.6l.68-1.54h1.48l1.93-4.63H53.37L54,38.17h4.8l2.28,4.44,1.26-2.9H61.11l.63-1.54h4.63l-.56,1.54H64.46Zm-3.16-.15h3.06l2.69-6.18H65.7l.45-1.24H61.84l-.5,1.24h1.22L61.09,43,58.7,38.32H54.1l-.5,1.24h1.32L52.86,44.5H51.38l-.54,1.24h4.43l.54-1.24H54.57L56.12,41Z"/><path id="l" class="cls-2" d="M63.87,45.8l.63-1.38h1.37l2-4.78H66.64l.54-1.39H74l-.59,1.39h-1.3l-2,4.78h2.18l1.94-2.19h1.32l-1.55,3.58Z"/><path class="cls-2" d="M74,45.88H63.76l.69-1.54h1.37l2-4.63H66.53l.6-1.53h7l-.65,1.53h-1.3l-2,4.63h2l1.94-2.19h1.46Zm-10-.16h9.89l1.48-3.43H74.2l-1.94,2.19H69.92L72,39.56h1.3l.52-1.23H67.24l-.49,1.23H68l-2.12,4.93H64.55Z"/><path id="o" class="cls-2" d="M83.38,38.13c-3.74,0-4.69.29-5.78,1.51a21.29,21.29,0,0,0-1.89,4.18c0,1.84.76,2,5,2,2.71,0,4.53.13,5.85-1.85a11.25,11.25,0,0,0,1.89-4.3C88.43,38.23,86.09,38.13,83.38,38.13Zm-.45,1.24c2,0,1.35,1.41,1.35,1.41l-1.11,2.38s-.38,1.28-2.41,1.28c-1.82,0-1-1.63-1-1.63l1-2.37A2.12,2.12,0,0,1,82.93,39.37Z"/><path class="cls-2" d="M81.57,45.93h-.88c-4.16,0-5.06-.19-5.06-2.11a21.62,21.62,0,0,1,1.91-4.23c1.13-1.26,2.17-1.54,5.84-1.54,2.81,0,5.13.13,5.13,1.65A11.42,11.42,0,0,1,86.6,44C85.41,45.83,83.78,45.93,81.57,45.93Zm1.81-7.72c-3.85,0-4.68.31-5.73,1.48a22.28,22.28,0,0,0-1.87,4.15c0,1.7.6,1.93,4.91,1.93h.46c2.47,0,4.1,0,5.32-1.82a11.13,11.13,0,0,0,1.89-4.25C88.36,38.32,86.1,38.21,83.38,38.21Zm-2.62,6.3a1.21,1.21,0,0,1-1.12-.45,1.52,1.52,0,0,1,.08-1.29l1-2.36a2.19,2.19,0,0,1,2.16-1.12,1.56,1.56,0,0,1,1.39.52,1.17,1.17,0,0,1,0,1L83.24,43.2S82.83,44.51,80.76,44.51Zm2.17-5.07a2.07,2.07,0,0,0-2,1l-1,2.37s-.36.7-.09,1.14c.15.25.48.38,1,.38,2,0,2.34-1.21,2.34-1.22l1.11-2.39a1,1,0,0,0,0-.86Q83.91,39.44,82.93,39.44Z"/><path id="p" class="cls-2" d="M99.24,38.25H89.83l-.43,1.39h1.37L88.7,44.41H87.32l-.58,1.39H93.4L94,44.41H92.79l.66-1.65h4.2c2,0,3.14-1.54,3.38-3.48C101.18,38.09,99.24,38.25,99.24,38.25Zm-2.88,1.39a.45.45,0,0,1,.49.49c0,.49-.52,1.24-1,1.24H94.14l.73-1.73Z"/><path class="cls-2" d="M93.45,45.88H86.63l.64-1.54h1.38l2-4.63H89.29l.48-1.53h9.47a2.42,2.42,0,0,1,1.65.41.82.82,0,0,1,.22.7c-.28,2.22-1.57,3.55-3.46,3.55H93.5l-.6,1.5h1.24Zm-6.6-.15h6.5l.56-1.24H92.68l.71-1.81h4.26c1.81,0,3-1.27,3.3-3.41a.66.66,0,0,0-.16-.57c-.44-.46-1.53-.37-1.54-.37H89.88l-.38,1.23h1.38l-2.13,4.93H87.37Zm9-4.28H94l.79-1.88h1.54a.59.59,0,0,1,.41.14.58.58,0,0,1,.16.43C96.93,40.66,96.37,41.45,95.88,41.45Zm-1.63-.16h1.63c.4,0,.9-.72.9-1.17a.41.41,0,0,0-.12-.32.42.42,0,0,0-.29-.1H94.92Z"/></g></g></g></svg>