<svg xmlns="http://www.w3.org/2000/svg" viewBox="0 0 120 50"><defs><style>.cls-1{fill:none;}.cls-2{fill:#959595;}</style></defs><g id="Capa_2" data-name="Capa 2"><g id="Capa_1-2" data-name="Capa 1"><rect class="cls-1" width="120" height="50"/><path class="cls-2" d="M70.6,21A26.8,26.8,0,0,0,67,13.87,11,11,0,0,0,64,11a5.33,5.33,0,0,0-6.06.17A12.4,12.4,0,0,0,54,15.6a38.16,38.16,0,0,0-3.69,9.69,45.19,45.19,0,0,0-1.19,6.41,1.42,1.42,0,0,1-.74,1.19c-1.18.72-2.33,1.47-3.56,2.25,0-.45,0-.85.09-1.23.29-2.45.62-4.9,1.12-7.31a54,54,0,0,1,5.6-16.08,19.86,19.86,0,0,1,4-5.17A8.22,8.22,0,0,1,61.5,3a7.39,7.39,0,0,1,4.23,1.67,19.41,19.41,0,0,1,5,6.08A36.64,36.64,0,0,1,74,18.68c.08.25,0,.35-.19.48C72.72,19.75,71.68,20.37,70.6,21Z"/><path class="cls-2" d="M61.15,18.42a2.64,2.64,0,0,1,0-5.28,2.64,2.64,0,0,1,0,5.28Z"/><path class="cls-2" d="M42.77,43.16c0,1.21,0,2.42,0,3.63,0,.18-.05.21-.21.21h-3c-.16,0-.19,0-.19-.19,0-.89,0-1.77,0-2.66,0-.16,0-.19-.19-.19H32.35c-.16,0-.2,0-.2.2,0,.89,0,1.77,0,2.66,0,.15,0,.18-.18.18h-3c-.13,0-.18,0-.18-.18V39.48c0-.14,0-.17.17-.16H32c.15,0,.18.06.17.19v2.24c0,.14,0,.19.18.19H39.2c.14,0,.17,0,.17-.18,0-.75,0-1.5,0-2.26,0-.15,0-.18.18-.18h3.05c.17,0,.18.06.18.2Z"/><path class="cls-2" d="M90.07,42.3a3.66,3.66,0,0,0-.93-2,3.13,3.13,0,0,0-2.38-1H75.31c-.17,0-.22,0-.22.21q0,3.36,0,6.72v.44L75,46.56l-5.15-7.11a.29.29,0,0,0-.27-.13H64.09a.37.37,0,0,0-.34.17l-5,6.87c-.08.1-.13.22-.26.29,0-.41,0-.79,0-1.18,0-.18,0-.23-.22-.23H48.13c-.15,0-.19,0-.18-.18a7.3,7.3,0,0,0,0-.81c0-.19,0-.22.22-.22H58.3c.17,0,.22,0,.22-.22,0-.45,0-.9,0-1.35,0-.14,0-.19-.19-.19H48.18c-.17,0-.25,0-.23-.22a4.7,4.7,0,0,0,0-.75c0-.21,0-.26.26-.26h10.1c.16,0,.21,0,.21-.2q0-.68,0-1.35c0-.18-.06-.21-.22-.21H44.75c-.18,0-.22,0-.22.22q0,3.63,0,7.26c0,.16,0,.2.21.2H62a.32.32,0,0,0,.29-.15l.7-1a.24.24,0,0,1,.21-.13H70.4a.21.21,0,0,1,.19.1c.23.33.48.65.71,1a.36.36,0,0,0,.34.16H86.58a4.22,4.22,0,0,0,.94-.09A2.9,2.9,0,0,0,89.7,45.2,5.07,5.07,0,0,0,90.07,42.3ZM64.37,44l.81-1.13c.36-.49.72-1,1.07-1.46a.25.25,0,0,1,.23-.13h.65a.24.24,0,0,1,.22.11l1.84,2.54,0,.07Zm22.37,0a.85.85,0,0,1-.83.57h-7.2c-.15,0-.2,0-.2-.2q0-1.23,0-2.46c0-.16,0-.2.2-.2h7.07c.62,0,.94.29,1.09,1A2,2,0,0,1,86.74,44Z"/><path class="cls-2" d="M90.12,37.51a.2.2,0,0,0,0-.13.16.16,0,0,0-.1-.08l-.16,0h-.38v.46h.38c.11,0,.18,0,.22-.07A.21.21,0,0,0,90.12,37.51Zm.2-.25a.36.36,0,0,1,.07.22.41.41,0,0,1-.12.3.53.53,0,0,1-.33.14l.14.08.23.31.18.31h-.3l-.14-.25a1.29,1.29,0,0,0-.23-.33l0,0-.2,0h-.15v.66h-.25V37.06h.63a.8.8,0,0,1,.3,0A.33.33,0,0,1,90.32,37.26Z"/><path class="cls-2" d="M91,37.82a1.17,1.17,0,0,0-.16-.6,1.12,1.12,0,0,0-.44-.45,1.27,1.27,0,0,0-.59-.16h0a1.27,1.27,0,0,0-.59.16,1.21,1.21,0,0,0-.45.45,1.21,1.21,0,0,0,0,1.2,1.16,1.16,0,0,0,.44.44,1.17,1.17,0,0,0,.6.16h0A1.2,1.2,0,0,0,91,37.82Zm.24,0a1.49,1.49,0,0,1-.19.72,1.29,1.29,0,0,1-.53.53,1.4,1.4,0,0,1-.71.19h0a1.4,1.4,0,0,1-.71-.19,1.31,1.31,0,0,1-.54-.53,1.48,1.48,0,0,1,0-1.45,1.44,1.44,0,0,1,.54-.53,1.71,1.71,0,0,1,.71-.19h0a1.5,1.5,0,0,1,.7.19,1.31,1.31,0,0,1,.54.53A1.5,1.5,0,0,1,91.26,37.82Z"/></g></g></svg>