<?xml version="1.0" encoding="utf-8"?>
<!-- Generator: Adobe Illustrator 28.0.0, SVG Export Plug-In . SVG Version: 6.00 Build 0)  -->
<svg version="1.1" id="Capa_1" xmlns="http://www.w3.org/2000/svg" xmlns:xlink="http://www.w3.org/1999/xlink" x="0px" y="0px"
	 viewBox="0 0 300 125" style="enable-background:new 0 0 300 125;" xml:space="preserve">
<style type="text/css">
	.st0{fill-rule:evenodd;clip-rule:evenodd;fill:#949494;}
</style>
<g>
	<path class="st0" d="M207.7,79.2c4.8-2.3,10.2-2.1,15.3-3.9c2.3-0.8,3.1-3.3,1.9-6.6c-2.8-4.4-6.2-3.6-11.9-3.1
		c5.1,2.2,3.9,9.4-2.6,10.1c-5.7,0.2-6.8-3.5-6.8-7c0.5-6.9,7.2-9.1,13.5-9.7c4.3,0,15.8-0.3,18.3,5.6c1.2,3,1.6,6.9,1.6,10.6v15.3
		c0.4,2,3.8,1.9,3.8-0.1v-6.6h4.6c0.3,7.9,0.6,13.3-7.8,15c-5.2,0.4-8.9-0.6-12.3-4.6c-5.5,3.9-8.7,5.6-15.4,4.2
		C201,96.5,199.3,83.2,207.7,79.2 M224.9,81l0.1,5c-0.4,7.7-9.8,8.3-10.9,2.7C212.9,83.8,221.8,81.8,224.9,81z M94.8,66.7
		C88.7,67,87.1,68,87,70.8l0.1,23.7C87.3,106,77.9,109,70.2,109c-7.5-0.2-12.6-3-15.2-9c-1.2-5.2-0.5-10.4,5.8-11.4
		c6.3-1.2,11,8.9,3.9,12c0.3,2.7,7.5,3.7,7.7-1.9V69.9c0.1-4.7-5.2-3.6-8.2-3.8v-6.5h30.6C94.8,59.6,94.8,66.7,94.8,66.7z
		 M202.7,91.9v6.6l-22.4,0.1v-6.5c4-0.1,5.3-1.9,5.3-4.6c0-9.5,0.5-17.4-2.3-18.6c-4.8-2.4-9.8-0.6-10.9,5.4v12.5
		c0,4.3,1.2,4.9,4.5,5.2v6.5L156,98.6v-6.5c3.6-0.1,4.7-2,4.9-5.3V72.7c-0.1-3.4-1.6-4.9-5.1-5.2c-6.2,0.5-7.4,3-7.2,8l0.1,11.4
		c0.2,4.3,1.7,5.2,4.6,5.3v6.4h-22.9v-6.4c3.5,0.1,6.1-0.1,6.1-3.7V70.9c-0.1-3.7-2.6-3-5.7-3.1l0.1-7.1h17.5V65
		c4.1-5.3,14.6-7.3,22-0.8c1.8,2.8,1.4,1.3,3.6-0.1c6.8-5.3,15.5-5.4,20.6,0c2.9,2.9,2.1,6.6,2.2,10.3v12.7
		C197,91.7,200.4,91.9,202.7,91.9z M110.2,100.2c-28.1-0.4-25.9-40.2,1.3-40.4C140,59.7,141.3,101.3,110.2,100.2z M112.6,67
		C124,67.3,123,93.3,113,93.5C100.3,93.9,100.2,67.3,112.6,67z"/>
</g>
</svg>
