<svg xmlns="http://www.w3.org/2000/svg" viewBox="0 0 120 50"><defs><style>.cls-1{fill:none;}.cls-2{fill:#959595;}</style></defs><g id="Capa_2" data-name="Capa 2"><g id="Capa_1-2" data-name="Capa 1"><rect class="cls-1" width="120" height="50"/><path class="cls-2" d="M58.84,43.93H49.25c-.33,0-.42-.09-.42-.41,0-3.59,0-7.18,0-10.77a3.78,3.78,0,0,1,.75-2.43,3.27,3.27,0,0,1,2.11-1.21,12.28,12.28,0,0,1,2-.15H71.34c.3,0,.38.09.38.38,0,3.89,0,7.77,0,11.66A2.79,2.79,0,0,1,70,43.53a5.61,5.61,0,0,1-2.25.41Zm2.28-11.41c-1.85,0-3.7,0-5.56,0a1.87,1.87,0,0,0-1.89,1.86c0,1.93,0,3.85,0,5.78,0,.27.09.34.35.34H64.89a2.14,2.14,0,0,0,2.28-2.28c-.08-1.76,0-3.54,0-5.31,0-.31-.09-.4-.4-.4C64.88,32.53,63,32.52,61.12,32.52Z"/><path class="cls-2" d="M46.41,43.92H42.23c-.31,0-.42-.06-.42-.41,0-2.8,0-5.61,0-8.41a3.89,3.89,0,0,0-.32-1.51,1.9,1.9,0,0,0-1.88-1.09H28.3V43.91H23.47V29l.27,0H42.22a4.59,4.59,0,0,1,2.7.84,3.34,3.34,0,0,1,1.5,2.79c0,3.7,0,7.39,0,11.09A2.15,2.15,0,0,1,46.41,43.92Z"/><path class="cls-2" d="M87.84,34.81a2.43,2.43,0,0,0-.6,1.85,2,2,0,0,0,.44,1.2c.18.22.15.32-.08.46L83,41.16c-1.22.76-2.44,1.53-3.67,2.27a3.07,3.07,0,0,1-1.78.52c-1.11-.05-2.23,0-3.35,0a.66.66,0,0,1-.49-.22c-.13-.2,0-.39.18-.55,1-.92,2.08-1.83,3.11-2.76L80.78,37c.47-.43.47-.6,0-1l-6.1-5.45a10.85,10.85,0,0,1-.86-.8.51.51,0,0,1-.13-.43.53.53,0,0,1,.37-.3c1.36,0,2.72-.06,4.07,0a3.06,3.06,0,0,1,1.25.54l8.22,5.09C87.67,34.67,87.74,34.74,87.84,34.81Z"/><path class="cls-2" d="M86.21,32.39l1.3-.84c1-.62,2-1.23,3-1.83.44-.26.9-.48,1.35-.7a.65.65,0,0,1,.31-.05c1.27,0,2.55,0,3.82,0a.68.68,0,0,1,.49.26c.16.23,0,.41-.22.56l-3.52,3.14c-.47.43-1,.84-1.42,1.28a.63.63,0,0,1-.69.13c-.42-.11-.85-.16-1.27-.25a1.83,1.83,0,0,1-.63-.17C87.89,33.44,87.08,32.92,86.21,32.39Z"/><path class="cls-2" d="M86.21,40.56l1.65-1a3.7,3.7,0,0,0,.43-.25,2.12,2.12,0,0,1,1.57-.49,1.59,1.59,0,0,0,.71-.2.59.59,0,0,1,.68.08l5,4.48c.16.14.32.3.22.55s-.31.25-.53.25c-1.24,0-2.47,0-3.71,0a2.93,2.93,0,0,1-1.62-.64C89.17,42.42,87.72,41.5,86.21,40.56Z"/><path class="cls-2" d="M81.19,43.6a1.08,1.08,0,0,0,.19-.08l3.54-2.16a.32.32,0,0,1,.27,0c1.24.75,2.47,1.51,3.68,2.34h-7.6Z"/><path class="cls-2" d="M81.25,29.25H89c-.22.15-.36.27-.52.37l-3,1.87a.49.49,0,0,1-.61,0c-1.12-.72-2.26-1.41-3.4-2.11C81.35,29.39,81.33,29.35,81.25,29.25Z"/></g></g></svg>