<?xml version="1.0" encoding="utf-8"?>
<!-- Generator: Adobe Illustrator 28.0.0, SVG Export Plug-In . SVG Version: 6.00 Build 0)  -->
<svg version="1.1" id="Capa_1" xmlns="http://www.w3.org/2000/svg" xmlns:xlink="http://www.w3.org/1999/xlink" x="0px" y="0px"
	 viewBox="0 0 300 125" style="enable-background:new 0 0 300 125;" xml:space="preserve">
<style type="text/css">
	.st0{fill:#949494;}
</style>
<g>
	<path class="st0" d="M256.6,94c0.5,0.4,1.1,0.4,1.6,0.4c1.2,0,2.5,0,3.7,0c3.6,0,7.2,0,10.8,0c2.6,0,5.2,0,7.8,0
		c0.3,0,0.5,0,0.6,0.3s0,0.5-0.1,0.7c-0.7,1-1.5,2.1-2.2,3.1c-0.2,0.3-0.5,0.5-0.9,0.5c-6.8,0-13.7,0-20.5,0c-1.9,0-3.8-0.1-5.7-0.2
		c-1.2-0.1-2.3-0.3-3.4-0.7c-0.2-0.1-0.3-0.1-0.5-0.2c-1.5-0.8-1.8-2.2-0.8-3.6c2.5-3.5,5.1-7,7.5-10.6c1.6-2.3,3.7-3.3,6.3-3.6
		c1.1-0.1,2.1-0.2,3.2-0.2c7.7,0,15.4,0,23.1,0c0.5,0,1,0.1,1.5,0.2c1.2,0.3,1.7,1.2,1.3,2.4c-0.2,0.6-0.5,1.3-0.9,1.8
		c-1.1,1.5-2.2,3-3.3,4.6c-1.3,1.8-3,2.6-5.1,2.9c-0.5,0.1-1.1,0.1-1.6,0.1c-6.7,0-13.5,0-20.2,0c-0.4,0-0.6,0.1-0.9,0.4
		C257.5,92.8,257,93.4,256.6,94z M261.7,87L261.7,87c5.2,0,10.4,0,15.7,0c0.1,0,0.3-0.1,0.4-0.2c0.3-0.4,0.6-0.8,0.9-1.2
		c0.2-0.3,0.5-0.5,0.3-0.9s-0.6-0.3-0.9-0.3c0,0,0,0-0.1,0c-4,0-8,0-12.1,0C264,84.4,262.5,85.2,261.7,87z"/>
	<path class="st0" d="M153.1,79.9c3.6,0,7.2,0,10.8,0c1.8,0,3.6,0.2,5.4,0.8c0.9,0.3,1.7,0.7,2.4,1.4c0.4,0.4,0.6,1,0.7,1.5
		c0,0.2-0.1,0.5-0.2,0.6c-2.5,3.5-5.1,7-7.5,10.5c-1.4,2-3.3,2.9-5.5,3.5c-2.2,0.5-4.3,0.7-6.6,0.7c-4.8,0-9.6,0-14.4,0
		c-1.9,0-3.8-0.1-5.6-0.6c-0.5-0.1-1-0.3-1.5-0.6c-1.3-0.8-1.7-2.1-0.8-3.4c1.3-1.9,2.7-3.8,4.1-5.6c0.8-1,1.9-1.4,3.2-1.6
		c0.4-0.1,0.9-0.1,1.3-0.1c7,0,14,0,21,0c0.3,0,0.5-0.1,0.6-0.3c0.4-0.5,0.8-1,1.2-1.6c0.2-0.2,0.1-0.4-0.1-0.5
		c-0.3-0.1-0.7-0.2-1-0.3c-0.2,0-0.4,0-0.6,0c-7.1,0-14.2,0-21.2,0c-0.1,0-0.2,0-0.3,0c-0.5,0-0.7-0.4-0.5-0.8
		c0.8-1.2,1.6-2.3,2.5-3.5c0.1-0.1,0.4-0.2,0.6-0.2C145.1,79.9,149.1,79.9,153.1,79.9L153.1,79.9z M140,94c0.2,0.1,0.4,0.2,0.6,0.3
		c0.4,0.1,0.7,0.1,1.1,0.1c3.8,0,7.7,0,11.5,0c0.9,0,1.8-0.3,2.4-1c0.5-0.5,1-1.1,1.4-1.6c0,0,0-0.1-0.1-0.1s-0.3,0-0.4,0
		c-3,0-6.1,0-9.1,0c-1.8,0-3.7,0-5.5,0c-0.1,0-0.3,0-0.4,0.1C141.1,92.5,140.6,93.2,140,94z"/>
	<path class="st0" d="M83.6,91.7c-0.1,0-0.3,0-0.4,0c-6,0-12.1,0-18.1,0c-0.6,0-1.2-0.1-1.8-0.2c-1.2-0.3-1.7-1.2-1.3-2.4
		c0.3-0.7,0.7-1.4,1.1-2.1c0.9-1.4,1.9-2.7,2.9-4.1s2.3-2,3.9-2.5c1.4-0.4,2.8-0.5,4.2-0.5c8.8,0,17.6,0,26.4,0c0.3,0,0.5,0,0.7,0.3
		c0.2,0.3,0,0.5-0.2,0.8c-0.8,1-1.5,2.1-2.2,3.1c-0.2,0.3-0.4,0.4-0.8,0.4c-6.9,0-13.7,0-20.6,0c-0.8,0-1.6,0.2-2.4,0.4
		c-0.7,0.2-1.2,0.5-1.6,1.1c-0.2,0.4-0.5,0.7-0.8,1.1c0.2,0,0.4,0,0.5,0c5.9,0,11.7,0,17.6,0c0.7,0,1.4,0.1,2,0.3
		c1.4,0.4,1.9,1.5,1.4,2.8c-0.2,0.5-0.4,0.9-0.7,1.3c-1,1.3-2,2.7-2.9,4c-1.1,1.5-2.7,2.3-4.5,2.8c-2.1,0.5-4,0.7-5.9,0.7
		c-4.7,0-9.4,0-14.2,0c-2.7,0-5.3,0-8,0c-0.8,0-1.7,0-2.5,0c-0.3,0-0.5,0-0.6-0.3c0-0.2,0-0.5,0.1-0.6c1-1.1,1.9-2.2,2.9-3.3
		c0.1-0.2,0.4-0.3,0.6-0.3c5.9,0,11.8,0,17.7,0c1.2,0,2.3,0,3.5,0c1,0,1.9-0.4,2.6-1.1c0.5-0.5,0.9-1,1.3-1.5
		C83.6,91.8,83.6,91.7,83.6,91.7z"/>
	<path class="st0" d="M47.4,90.4c-0.5,0.4-0.9,0.7-1.3,1c-0.2,0.1-0.5,0.1-0.7,0.1c-2-0.3-4.1-0.5-6.2-0.3c-3.6,0.3-6.7,1.7-9.3,4.3
		c-2.2,2.1-3.8,4.6-5.2,7.3c-1.5,2.8-2.6,5.7-3.7,8.6c-0.2,0.6-0.5,0.9-1.1,1c-0.2,0-0.4,0.1-0.7,0.2c0.1-0.2,0.1-0.4,0.2-0.6
		c1-3.1,1.8-6.2,2.3-9.4c0.5-3,0.7-6.1,0-9.1c-0.9-3.9-3.1-6.7-6.6-8.5c-1.5-0.8-3-1.3-4.6-1.7c-0.1,0-0.3-0.1-0.5-0.1
		c0.4-0.3,0.8-0.6,1.2-0.9c0.2-0.1,0.4-0.1,0.6,0c2.8,0.5,5.7,0.6,8.5-0.1c3.2-0.8,5.7-2.6,7.8-5.1c2.2-2.6,3.8-5.6,5.1-8.7
		c0.9-2.1,1.7-4.3,2.5-6.4c0.2-0.6,0.5-0.9,1.1-1c0.2,0,0.5-0.1,0.7-0.2c-0.2,0.5-0.3,1-0.5,1.4c-1,3.1-1.8,6.3-2.3,9.6
		c-0.4,2.8-0.4,5.5,0.2,8.2c1,4.2,3.5,7.1,7.4,8.9c1.5,0.7,3.1,1.2,4.7,1.6C47.2,90.3,47.3,90.3,47.4,90.4z"/>
	<path class="st0" d="M104.9,94c0.2,0.4,0.6,0.4,0.9,0.5c0.2,0,0.5,0,0.7,0c2.9,0,5.7,0,8.6,0c0.3,0,0.6,0,0.7,0.3s0,0.5-0.2,0.7
		c-0.7,1-1.5,2.1-2.2,3.1c-0.1,0.2-0.4,0.3-0.6,0.3c-3.7,0-7.5,0-11.2,0c-1.2,0-2.5-0.3-3.7-0.5c-0.9-0.2-1.7-0.7-2.4-1.4
		c-0.8-0.9-0.9-2-0.2-3c5-6.9,10-13.9,15-20.8c0.2-0.3,0.5-0.5,0.9-0.5c2.5,0,4.9,0,7.4,0c0.3,0,0.6,0,0.7,0.3
		c0.1,0.3,0,0.5-0.2,0.8c-1.4,2-2.7,3.9-4.1,5.9c0,0.1-0.1,0.1-0.1,0.2c0.2,0,0.3,0,0.5,0c6.8,0,13.7,0,20.5,0c0.1,0,0.2,0,0.3,0
		c0.2,0.1,0.5,0.1,0.5,0.3c0.1,0.2,0,0.5-0.1,0.6c-0.5,0.8-1.2,1.6-1.6,2.4c-0.5,1-1.2,1.2-2.3,1.2c-6.8-0.1-13.6,0-20.4,0
		c-0.3,0-0.5,0.1-0.6,0.3c-1,1.3-2,2.6-3,3.9c-1.3,1.7-2.5,3.4-3.7,5.1C105.1,93.8,105,93.9,104.9,94z"/>
	<path class="st0" d="M214.2,91.5c1.2-0.8,2.4-1.5,3.5-2.3c4.6-3,9.2-6.1,13.8-9.1c0.2-0.1,0.4-0.2,0.7-0.2c2.5,0,5.1,0,7.6,0
		c0.3,0,0.5,0,0.6,0.3c0.1,0.3-0.1,0.5-0.3,0.7c-5.1,3.5-10.2,6.9-15.3,10.4c-3.6,2.4-7.2,4.9-10.7,7.3c-0.3,0.2-0.6,0.3-1,0.3
		c-2.7,0-5.4,0-8.2,0c-0.7,0-0.8-0.2-0.7-0.9c0.4-3.1,0.8-6.3,1.3-9.4c0.4-2.7,0.7-5.4,1.1-8.1c0.1-0.5,0.2-0.6,0.8-0.6
		c2.7,0,5.4,0,8.1,0c0.7,0,0.8,0.2,0.7,0.8c-0.7,3.5-1.3,7.1-2,10.6C214.2,91.4,214.2,91.4,214.2,91.5z"/>
	<path class="st0" d="M195,84.4c-2.6,0-5.1,0-7.7,0c-1,0-2,0.1-2.9,0.6c-0.3,0.2-0.7,0.5-0.9,0.8c-3.1,4.2-6.1,8.4-9.1,12.6
		c-0.3,0.4-0.5,0.5-1,0.5c-2.6,0-5.1,0-7.7,0c-0.3,0-0.5,0-0.7-0.3c-0.1-0.3,0-0.5,0.2-0.7c3.4-4.7,6.9-9.3,10.2-14.1
		c1.6-2.3,3.7-3.3,6.2-3.7c1.1-0.2,2.3-0.2,3.4-0.2c6.2,0,12.4,0,18.7,0c0.6,0,0.8,0.2,0.7,0.8c-0.2,1.1-0.3,2.3-0.6,3.4
		c0,0.1-0.3,0.3-0.5,0.3c-0.4,0-0.8,0-1.2,0C199.8,84.4,197.4,84.4,195,84.4z"/>
	<path class="st0" d="M248.8,79.9c1.3,0,2.7,0,4,0c0.2,0,0.5,0.1,0.6,0.3c0.1,0.2,0,0.5-0.1,0.7c-4.3,5.9-8.6,11.9-12.9,17.8
		c-0.1,0.2-0.4,0.3-0.6,0.3c-2.7,0-5.3,0-8,0c-0.2,0-0.4-0.1-0.5-0.3c-0.2-0.2-0.1-0.5,0.1-0.7c2.4-3.4,4.9-6.8,7.3-10.1
		c1.8-2.5,3.6-5,5.4-7.5c0.2-0.3,0.5-0.5,0.9-0.5C246.2,79.9,247.5,79.9,248.8,79.9z"/>
	<path class="st0" d="M253.8,72.7c1.2,0,2.5,0,3.7,0c0.1,0,0.3,0,0.4,0c0.5,0.1,0.6,0.5,0.3,0.9c-0.9,1.2-1.9,2.3-2.9,3.4
		c-0.1,0.1-0.3,0.2-0.5,0.2c-2.5,0-4.9,0-7.4,0c-0.2,0-0.5-0.1-0.5-0.3c-0.1-0.2,0-0.5,0.1-0.6c0.8-1.2,1.6-2.3,2.4-3.4
		c0.1-0.1,0.3-0.2,0.5-0.2C251.2,72.7,252.5,72.7,253.8,72.7z"/>
</g>
</svg>
