<svg xmlns="http://www.w3.org/2000/svg" viewBox="0 0 120 50"><defs><style>.cls-1{fill:none;}.cls-2{fill:#959595;}</style></defs><g id="Capa_2" data-name="Capa 2"><g id="Capa_1-2" data-name="Capa 1"><rect class="cls-1" width="120" height="50"/><path class="cls-2" d="M56.8,25.16c1.78-.43,3.93-.28,5.24,1.14s1,3.44.57,5.1a28.91,28.91,0,0,1-3.79,6.77,1.37,1.37,0,0,0-.16,1.45c.7.84,1.92.21,2.55-.41,1.87-2,2.58-4.73,2.8-7.35h4.07c.48,2.6,3,4.21,3.43,6.84a4.47,4.47,0,0,1-5,5.08,7.1,7.1,0,0,1-3.81-2.24c-1.39,1.28-3.1,2.5-5.1,2.29a3.77,3.77,0,0,1-3.33-2.44C53,42.63,51.55,44,49.67,43.83a3,3,0,0,1-3.22-2.43c-.16-2.42.11-4.86-.14-7.28L45.46,34v-2.1h5.68c0,2.57-.08,5.15,0,7.72.42.71,1.22.24,1.7-.14a3.9,3.9,0,0,0,1.26-2.83c0-2.76,0-5.53,0-8.29a3.36,3.36,0,0,1,2.64-3.16m1.6,4.2c-.08,1.57,0,3.14,0,4.72A11,11,0,0,0,60.16,30a2.36,2.36,0,0,0-.52-2.39c-.87,0-1.19,1-1.24,1.75m5.76,10.21c.54.6,1.44,1.29,2.21.61,1.15-1.24-.36-2.71-.86-3.9C65.09,37.39,64.63,38.48,64.16,39.57Z"/><path class="cls-2" d="M21.46,25.66h6.88c0,4.23,0,8.46,0,12.68a1.63,1.63,0,0,0,2.77,1c.56-.54.45-1.38.49-2.09,0-2.81,0-5.63,0-8.44h-2V25.67c2.27,0,4.54,0,6.81,0,0,4.1,0,8.2,0,12.3,0,.8.2,1.87,1.19,1.9a2.77,2.77,0,0,0,2-2c1.16-2.89.56-6.1-.22-9H37.72V25.66h5.69a26.94,26.94,0,0,1,1.29,8.17c0,2.91-.57,6-2.56,8.28-2.09,2.43-6.4,2.5-8.37-.13a6.16,6.16,0,0,1-7.7,1A6.06,6.06,0,0,1,23.45,38c0-3,0-6.08,0-9.12h-2C21.46,27.79,21.46,26.73,21.46,25.66Z"/><path class="cls-2" d="M47.77,27.2a4,4,0,0,1,3.44.64,2.14,2.14,0,0,1-.88,3.45,3.75,3.75,0,0,1-3.9-.74A2.15,2.15,0,0,1,47.77,27.2Z"/><path class="cls-2" d="M89.82,33.6c1.21-1.22,2.81-2.32,4.6-2a3.06,3.06,0,0,1,2.74,2.94c.07,2.18-.08,4.36,0,6.54,0,.76.84.53,1.33.68v2c-1.38,0-2.75.06-4.12,0A2.1,2.1,0,0,1,92.54,42c-.28-1.88,0-3.8-.17-5.69-.44-1.12-2.6-.62-2.35.65,0,2.27,0,4.53,0,6.8-1.58,0-3.16,0-4.74,0a74,74,0,0,0-.15-7.88,4.93,4.93,0,0,0-1.24.66c.42,2.25-.2,4.94-2.26,6.22-2.73,2-7.15,1.32-8.9-1.65a6.5,6.5,0,0,1,.37-7.24c2.43-2.93,7.56-2.95,9.85.16,1.17-1.26,2.69-2.68,4.56-2.33,1.1.14,1.71,1.14,2.31,2M77.3,34.93c-1.09,1.2-.82,3.13-.58,4.62a1.25,1.25,0,0,0,2.09.76A7.09,7.09,0,0,0,79,35.48C78.78,34.78,77.87,34.66,77.3,34.93Z"/></g></g></svg>