<?xml version="1.0" encoding="utf-8"?>
<!-- Generator: Adobe Illustrator 28.0.0, SVG Export Plug-In . SVG Version: 6.00 Build 0)  -->
<svg version="1.1" id="Capa_1" xmlns="http://www.w3.org/2000/svg" xmlns:xlink="http://www.w3.org/1999/xlink" x="0px" y="0px"
	 viewBox="0 0 255 167" style="enable-background:new 0 0 255 167;" xml:space="preserve">
<style type="text/css">
	.st0{fill:#1D1D1B;}
	.st1{fill:#141E68;}
	.st2{fill:#CE0E2D;}
	.st3{fill-rule:evenodd;clip-rule:evenodd;fill:#1D1D1B;}
	.st4{fill:#DE453B;}
	.st5{fill:#001E62;}
	.st6{fill:#FFFFFF;}
	.st7{fill:none;stroke:#E30613;stroke-width:10;stroke-miterlimit:10;}
	.st8{fill:#E30613;}
	.st9{fill:#CE1322;}
	.st10{fill-rule:evenodd;clip-rule:evenodd;fill:#0D00AA;}
	.st11{fill:#1F140F;}
</style>
<g id="Ilustración_4_00000009583474179778896700000008922416263691117954_">
	<g>
		<path class="st0" d="M225,81.5c-0.5-1.6-1.4-3-2.8-4.1c-2.1-1.6-4.5-2-7-1.8c-0.6,0.1-1.2,0.2-1.8,0.2c-10.8,0-21.5,0-32.3,0.1
			c-1.2,0-2.4-0.2-3.6-0.3c-2-0.2-3.9-0.1-5.8,0.5c-0.2,0.1-0.5,0-0.6,0c-1.5-0.5-2.9-0.7-4.5-0.5c-0.5,0.1-0.9,0.2-1.4,0.2
			c-1.4,0-2.7,0-4.1,0c-0.2,0-0.3-0.1-0.4-0.2c-1-1.5-2.3-2.7-3.9-3.6c-1.9-1-3.9-1.5-6.1-1.5c-3.3-0.1-6.4,0.7-9.2,2.6
			c-0.9,0.6-1.8,1.4-2.7,2.1c-1.5-1.1-3.3-1.5-5.3-1.5c0-0.1,0-0.2,0-0.3c-0.1-2-1.3-3.5-3.2-4c-0.1,0-0.3-0.2-0.4-0.3
			c-0.6-1.1-1.5-1.8-2.7-2.2c-1.2-0.4-2.5-0.3-3.8-0.1c-1.3,0.2-2.5,0.7-3.5,1.5c-0.2,0.1-0.2,0.3-0.2,0.5c0.1,0.7,0.1,1.5,0.2,2.2
			c-0.4,0.2-0.8,0.3-1.1,0.5c-1,0.5-1.8,1.2-2,2.3c-0.1,0.4-0.2,0.5-0.6,0.5c-1.5,0.1-2.8,0.5-4.1,1.3c-0.1,0.1-0.3,0.1-0.5,0.1
			c-1.4,0-2.8,0-4.2,0c-0.1,0-0.2,0-0.3,0c0.4-1.6,0.8-3.3,1.1-4.9H94.6c-0.5,1.9-0.9,3.9-1.3,5.8c-5-2-9.6-1.4-13.9,1.6
			c-0.7-0.6-1.4-1.2-2.3-1.6c-2.3-1.1-4.8-1.3-7.3-1.1c-0.5,0-0.9,0.1-1.4,0.2c0.4-1.6,0.7-3.2,1.1-4.8H55.8
			c-0.1,0.6-0.3,1.2-0.4,1.9c-0.1-0.1-0.2-0.1-0.3-0.2c-0.7-0.3-1.5-0.7-2.2-1c-1.7-0.6-3.4-0.7-5.2-0.7c-3.7,0-7.4,0-11.2,0h-0.4
			c-2,9-4.1,18-6.1,26.9h0.4c4.8,0,9.6,0,14.3,0c1.7,0,3.3-0.1,5-0.4c0,0.1,0,0.3,0,0.4h13.7c0-0.2,0.1-0.3,0.1-0.4h0.1
			c1.6,0.7,3.4,1,5.1,0.7c1.3-0.2,2.5-0.2,3.8-0.2c3.1,0,6.1,0,9.2,0c0.2,0,0.5-0.1,0.7,0c1.5,0.4,3.1,0.5,4.6,0.3
			c1.4-0.2,2.7-0.2,4.1-0.2c7.2,0,14.4,0,21.6,0c0.2,0,0.4,0,0.6,0c0.1,0,0.2,0.1,0.3,0.2c0.9,1.5,2.3,2.1,4,2.1
			c1.4,0,2.8-0.4,4.1-1c1.1-0.5,2.2-0.9,3.4-1c1.3-0.1,2.7-0.1,4-0.1c1.3,0,2.6,0.2,3.8,0.6c1,0.3,2.1,0.4,3.1,0.3
			c1.5-0.2,2.6-1,3-2.5c0.1-0.3,0.1-0.6,0.1-1c0.1,0.1,0.2,0.2,0.4,0.3c0.1,0.1,0.2,0.2,0.4,0.3c2.8,1.9,5.9,2.4,9.2,2.1
			c0.3,0,0.7-0.1,1-0.1c0.3-0.1,0.7-0.1,1-0.2c0.3-0.1,0.6,0.1,0.9,0.1c0.3,0,0.7,0,1,0h12.3c0.2-0.9,0.4-1.8,0.6-2.8
			c2.3,2.1,4.9,3,7.9,3.1c2.9,0.1,5.7-0.5,8.2-2.2c0.1,0.6,0.2,1.2,0.3,1.8h39.7c0.2-1.1,0.4-2.3,0.7-3.4c0.8-4,1.5-8,2.3-11.9
			C225,82.2,225.1,81.8,225,81.5z M52.7,85.2c1.1,1.1,1.3,2.4,0.8,3.8c-0.7,2.3-2.3,3.6-4.6,4.1c-1.1,0.2-2.2,0.3-3.3,0.3
			c-3.1,0-6.2,0-9.3,0c-0.1,0-0.2,0-0.3,0c1.4-6,2.7-12,4.1-18h2c2,0,4,0,6,0c1.2,0,2.4,0.1,3.5,0.6c1.6,0.6,2.5,1.8,2.6,3.5
			c0.1,1.7-0.6,3.1-2.2,3.9c-0.5,0.2-0.9,0.4-1.4,0.6C51.4,84.3,52.1,84.6,52.7,85.2z M55.7,93.4c1.4-6,2.7-12,4.1-18h3.8
			c-1.4,6-2.7,12-4.1,18H55.7z M76.5,85.3c-0.3,1.7-0.7,3.3-1.1,5c-0.2,0.9-0.2,1.9,0.1,2.8c0,0.1,0,0.1,0,0.2h-3.8
			c-0.1-0.4-0.2-0.9-0.3-1.4c0,0-0.1,0.1-0.2,0.1c-1.5,1.3-3.2,1.9-5.2,1.4c-1.9-0.5-3.1-2.2-2.8-4.2c0.2-1.9,1.3-3,3.3-3.5
			c1.1-0.2,2.3-0.3,3.4-0.5c0.8-0.1,1.6-0.2,2.4-0.4c0.1,0,0.2-0.2,0.3-0.3c0.1-0.2,0.1-0.3,0.1-0.5c0.2-0.9-0.2-1.6-1.1-1.7
			c-0.6-0.1-1.2-0.1-1.8,0c-0.8,0.1-1.1,0.5-1.4,1.3c-1.2-0.1-2.5-0.2-3.7-0.3c0.5-1.2,1.2-2.1,2.3-2.7c0.9-0.5,1.9-0.8,3-0.9
			c1.4-0.1,2.8-0.1,4.1,0.3c1.3,0.5,2.3,1.3,2.4,2.7C76.8,83.9,76.6,84.6,76.5,85.3z M86.9,90.7c0.8-0.4,1.3-1,1.7-1.7
			c0.1-0.1,0.1-0.3,0.2-0.4c1.2,0.2,2.5,0.4,3.7,0.6c-0.5,1.3-1.2,2.4-2.3,3.2c-2.4,1.7-5,2-7.6,0.8c-1.6-0.7-2.5-2.2-2.7-3.9
			c-0.2-2.2,0.2-4.3,1.6-6.1c1.3-1.7,3-2.5,5.1-2.9c1.4-0.2,2.7-0.2,4.1,0.4c1.7,0.7,2.7,2,2.9,3.9c-1.2,0.1-2.4,0.2-3.6,0.4
			c-0.1-0.2-0.1-0.4-0.1-0.6c-0.3-1.1-1.2-1.6-2.3-1.6c-1.3,0.1-2.2,0.8-2.8,1.8c-0.8,1.3-1.1,2.7-1.1,4.2
			C83.6,90.6,85.2,91.5,86.9,90.7z M108.9,81.4c-1.4,1.2-2.8,2.3-4.2,3.4c-0.2,0.2-0.2,0.3-0.1,0.5c1,2.6,1.9,5.2,2.8,7.8
			c0,0.1,0,0.1,0.1,0.2H106c-0.7,0-1.3,0-2,0c-0.2,0-0.3-0.1-0.4-0.3c-0.6-1.8-1.2-3.6-1.8-5.4c0-0.1-0.1-0.2-0.1-0.3
			c-0.8,0.7-1.6,1.4-2.5,2c-0.1,0.1-0.1,0.2-0.2,0.4c-0.3,1.1-0.5,2.2-0.8,3.4c0,0.1,0,0.2-0.1,0.2h-3.8c1.4-6,2.7-12,4.1-18h3.8
			c-0.7,3.1-1.4,6.1-2.1,9.3c0.3-0.3,0.6-0.5,0.9-0.8c1.3-1.2,2.6-2.3,3.9-3.4c0.1-0.1,0.2-0.1,0.3-0.1c1.5,0,3.1,0,4.7,0
			c0,0,0.1,0,0.1,0C109.7,80.8,109.3,81.1,108.9,81.4z M136.7,81.7c-0.4,1.2-0.8,2.3-1.2,3.5c-0.6,1.6-1.2,3.2-1.8,4.8
			c-0.4,1.2-0.4,2.4,0.1,3.6c0.1,0.2,0.1,0.3,0.2,0.5c0,0.2,0,0.3-0.2,0.2c-2.1-0.6-4.2-0.7-6.4-0.6c-1.7,0-3.3,0.1-5,0.6
			c-1.4,0.4-2.7,0.9-4,1.5c-0.2,0.1-0.4,0.1-0.6,0.2c0-0.2,0-0.4,0-0.6c0.2-0.9,0.1-1.8,0-2.7c-0.1-1.1-0.6-2-1.2-2.9
			c-0.7-1.2-1.4-2.3-2-3.5c-0.5-0.9-0.9-2-1.1-3c-0.2-1.5,0.1-2.7,1.4-3.6c0.8-0.5,1.7-0.6,2.6-0.6c1,0,1.9,0.1,2.9,0.1
			c1.1,0,2.2-0.2,3.1-0.8c0.6-0.3,1-0.7,1.2-1.4c0.1-0.3-0.1-0.8-0.3-1c-0.3-0.2-0.6-0.2-0.9,0.1c-0.4,0.3-0.7,0.7-1.1,1
			c-1.1-1-1-3.2-0.2-4.1c0,0.2,0.1,0.3,0.1,0.5c0.1,0.3,0.3,0.7,0.6,0.8c0.3,0.2,0.6,0.2,0.8,0c0.3-0.2,0.4-0.6,0.2-0.9
			c-0.2-0.4-0.6-0.7-0.9-1c0,0-0.1-0.1-0.2-0.2c1.1-0.9,3.8-0.9,4.4,0c-0.2,0.2-0.5,0.3-0.7,0.5s-0.3,0.5-0.4,0.7
			c-0.1,0.3,0,0.5,0.2,0.7c0.2,0.2,0.5,0.2,0.7,0c0.3-0.3,0.6-0.6,0.9-1c0.1-0.1,0.1-0.2,0.2-0.2c0.1,0.1,0.2,0.2,0.2,0.3
			c0.1,0.5,0.2,1,0.2,1.5c0,0.6-0.1,1.3-0.5,1.8c0,0.1-0.1,0.1-0.1,0.2c0,0-0.1,0-0.1,0.1c-0.1-0.2-0.2-0.4-0.3-0.6
			c-0.1-0.2-0.2-0.4-0.4-0.4c-0.5-0.3-1,0-1,0.7c-0.1,1.3,0.7,2.1,2,2.3c1.6,0.2,3.2,0.1,4.7-0.1c0.8-0.1,1.6-0.2,2.4,0.2
			C136.6,79.1,137.1,80.6,136.7,81.7z M155.3,89.8c-1.8,2.5-4.3,3.8-7.3,3.9c-1.4,0.1-2.8-0.1-4-0.6c-2-0.8-3.3-2.3-3.8-4.4
			c-0.8-3.6-0.2-7,2.1-10c1.5-2,3.7-3.1,6.2-3.5c1.7-0.3,3.3-0.2,5,0.4c2.4,0.8,4,2.9,4.2,5.3c-1.3,0.1-2.5,0.2-3.8,0.3
			c-0.1-0.2-0.1-0.4-0.2-0.5c-0.5-1.5-1.5-2.4-3.1-2.4c-2.5-0.1-4.3,1.1-5.5,3.3c-0.8,1.6-1.2,3.4-1.1,5.2c0.1,1.8,1.2,3.2,2.7,3.7
			c1.2,0.4,2.5,0.1,3.6-0.5c1-0.6,1.7-1.5,2.1-2.5c0.1-0.2,0.1-0.3,0.2-0.5c0.7,0.1,1.4,0.2,2,0.3c0.7,0.1,1.3,0.2,2,0.3
			C156.2,88.3,155.8,89.1,155.3,89.8z M166.5,83.2c-1.5,0.3-2.5,1.2-3.1,2.5c-0.6,1.2-0.9,2.5-1.2,3.8c-0.3,1.2-0.5,2.5-0.8,3.7
			c0,0,0,0.1-0.1,0.2h-3.8c1-4.4,2-8.7,3-13h3.6c-0.2,0.8-0.3,1.5-0.5,2.2c0.5-0.5,0.9-1,1.3-1.4c1.4-1.2,2.9-1.5,4.7-0.8
			c-0.5,1-1,1.9-1.4,2.8C167.5,83.2,167,83.1,166.5,83.2z M179.7,92c-1.2,1.1-2.8,1.6-4.4,1.7c-1.3,0.1-2.5,0-3.8-0.4
			c-2.2-0.8-3.5-2.4-3.7-4.8c-0.2-1.7,0.1-3.3,1-4.8c1.1-2,2.9-3.1,5.1-3.5c0.6-0.1,1.2-0.1,1.8-0.2c1.1,0,2.2,0.2,3.2,0.6
			c2,0.8,3.2,2.3,3.4,4.5C182.7,87.9,181.8,90.2,179.7,92z M198.8,93.1c-0.1,0.2-0.2,0.3-0.5,0.3c-1.1,0-2.2,0-3.3,0
			c-0.2-2.7-0.5-5.5-0.7-8.3c-0.3,0.6-0.6,1.1-0.9,1.7c-1.1,2.1-2.2,4.2-3.2,6.3c-0.1,0.2-0.2,0.3-0.5,0.3c-1,0-1.9,0-2.9,0h-0.3
			c-0.6-4.4-1.2-8.7-1.7-13h3.4c0.3,2.9,0.7,5.7,1,8.7c0.4-0.7,0.7-1.4,1-2c1.1-2.1,2.2-4.3,3.2-6.4c0-0.1,0.2-0.2,0.3-0.2
			c1.1,0,2.2,0,3.3,0c0.2,2.9,0.3,5.7,0.4,8.7c0.1-0.1,0.1-0.2,0.1-0.2c1.4-2.7,2.7-5.4,4.1-8.2c0.1-0.2,0.2-0.3,0.4-0.3
			c1.1,0,2.2,0,3.3,0c0.1,0,0.2,0,0.3,0c-0.4,0.8-0.8,1.5-1.2,2.3C202.6,86.1,200.7,89.6,198.8,93.1z M220.1,84.1
			c-0.4,2-0.9,4-1.4,6c-0.2,1.1-0.5,2.1-0.8,3.2h-3.8c0.2-0.8,0.4-1.5,0.5-2.3c0.5-2.2,1-4.3,1.5-6.5c0.3-1.3-0.6-2.3-2-1.9
			c-1.7,0.4-2.9,1.5-3.4,3.2c-0.5,1.6-0.8,3.2-1.2,4.8c-0.2,0.9-0.4,1.9-0.6,2.8h-3.8c1-4.4,2-8.7,2.9-13h3.7
			c-0.1,0.5-0.2,1.1-0.3,1.6c0.4-0.3,0.8-0.6,1.2-0.8c1.3-0.9,2.8-1.2,4.4-1.1C219.2,80.2,220.6,82,220.1,84.1z"/>
		<path class="st0" d="M124.5,88.6c0,0.4-0.1,0.5-0.5,0.5c-0.3,0-0.5,0-0.8-0.1c-0.9-0.2-1.5,0.1-2,0.9c-0.2,0.3-0.4,0.7-0.7,1
			c-0.3,0.3-0.5,0.3-0.8,0c-0.6-0.7-1.1-1.3-1.6-2.1c-1-1.4-1.8-2.9-2.5-4.6c-0.5-1.2,0.1-3.1,1.3-3.5c0.6-0.2,1.3-0.3,2-0.1
			c0.9,0.2,1.8,0.4,2.7,0.3c0.2,0,0.5,0,0.8-0.1c0,0.4,0,0.8,0,1.1c0.1,1.1,0.5,2,1.3,2.8c0.5,0.6,0.8,1.2,0.8,2
			C124.5,87.3,124.5,88,124.5,88.6z"/>
		<path class="st0" d="M134.9,82.1c0,0.7-0.1,1.4-0.3,2.1c-0.4,1.7-1,3.4-1.8,5c-0.1,0.1-0.2,0.3-0.2,0.4c-0.4,0.6-0.6,0.6-1.2,0.2
			c-0.2-0.2-0.5-0.4-0.7-0.6c-0.8-0.8-1.6-0.8-2.6-0.3c-0.3,0.2-0.7,0.3-1,0.4c-0.2,0.1-0.4,0-0.5-0.3c-0.1-0.4-0.1-0.8-0.2-1.1
			c0,0,0.1,0,0.1,0c-0.2-1.2,0.3-2,1-2.9c0.9-1.1,1.3-2.4,1.4-3.8c0-0.3,0.1-0.4,0.4-0.4c0.8-0.2,1.7-0.4,2.5-0.5
			c0.6-0.1,1.2-0.2,1.8,0C134.3,80.4,134.9,81.2,134.9,82.1z"/>
		<path class="st0" d="M49.3,88.9c-0.5,0.9-1.3,1.4-2.3,1.5c-0.7,0.1-1.5,0.1-2.2,0.1c-1.4,0-2.8,0-4.2,0c0.3-1.6,0.7-3.1,1.1-4.7
			c1.9,0,3.9,0.1,5.8,0.1c0.3,0,0.5,0.1,0.8,0.2C49.5,86.5,50,87.8,49.3,88.9z"/>
		<path class="st0" d="M49.5,81.8c-0.6,0.5-1.3,0.7-2,0.8c-0.4,0-0.8,0.1-1.2,0.1c-1.3,0-2.6,0-4,0c0.3-1.4,0.6-2.8,1-4.2h0.9
			c1.3,0,2.7,0,4,0c0.2,0,0.4,0,0.6,0.1c0.7,0.2,1.2,0.5,1.3,1.2C50.4,80.6,50.1,81.3,49.5,81.8z"/>
		<path class="st0" d="M176.7,90.2c-1.3,1.2-3.4,1-4.4-0.3c-0.5-0.6-0.6-1.3-0.6-2c0.1-1.4,0.4-2.8,1.4-3.9c0.9-1.1,2.1-1.5,3.4-1.2
			c1.2,0.2,2.1,1.1,2.2,2.3C178.8,87.1,178.2,88.8,176.7,90.2z"/>
		<path class="st0" d="M72.3,87.3c-0.2,0.8-0.4,1.5-0.7,2.1c-0.5,1.1-2.2,1.9-3.4,1.6c-0.7-0.2-1.1-0.6-1.2-1.2
			c-0.1-0.7,0.2-1.3,0.9-1.5c0.7-0.3,1.5-0.5,2.3-0.6C70.9,87.5,71.6,87.4,72.3,87.3z"/>
	</g>
</g>
<g id="Capa_2">
</g>
</svg>
