<?xml version="1.0" encoding="utf-8"?>
<!-- Generator: Adobe Illustrator 28.0.0, SVG Export Plug-In . SVG Version: 6.00 Build 0)  -->
<svg version="1.1" id="Capa_1" xmlns="http://www.w3.org/2000/svg" xmlns:xlink="http://www.w3.org/1999/xlink" x="0px" y="0px"
	 viewBox="0 0 255 167" style="enable-background:new 0 0 255 167;" xml:space="preserve">
<style type="text/css">
	.st0{fill:#1D1D1B;}
	.st1{fill:#141E68;}
	.st2{fill:#CE0E2D;}
	.st3{fill-rule:evenodd;clip-rule:evenodd;fill:#1D1D1B;}
	.st4{fill:#DE453B;}
	.st5{fill:#001E62;}
	.st6{fill:#FFFFFF;}
	.st7{fill:none;stroke:#E30613;stroke-width:10;stroke-miterlimit:10;}
	.st8{fill:#E30613;}
	.st9{fill:#CE1322;}
	.st10{fill-rule:evenodd;clip-rule:evenodd;fill:#0D00AA;}
	.st11{fill:#1F140F;}
</style>
<g id="layer1_00000131337961719211589620000003959713793223696811_" transform="translate(374.28571,-360.93362)">
	<path id="path117_00000140002488275386246130000010353410026066932879_" class="st9" d="M-316.2,424.5h-14.1v6.4h4.2v19.4
		c0,0,0,12.1,12.8,12.1c0,0,5.4,0.1,8.6-4.4c0,0,2.7,4.4,7.8,4.4c0,0,4.9,0.5,8.1-2.5c0,0,6.8-4.6,6.7-18.6c0,0-0.2-10.6-2.7-16.8
		h-11.7v6.4h3.5c0,0,1.8,5.2,1.8,11.9c0,0,0.2,4-1.8,8.2c0,0-1.3,3-4,3c0,0-2.4-0.1-2.3-3v-26.6h-14.1v6.4h4.2v19.7
		c0,0,0,3.5-3.5,3.5c0,0-3.5,0-3.5-3.5V424.5"/>
	<path id="path121_00000090987604600242284690000005741619630528014779_" class="st9" d="M-273.2,427.3c0,0,5.9,0,5.9,4.6
		c0,0,0,4.6-5.9,4.6c0,0-5.9,0-5.9-4.6C-279.2,431.9-279.2,427.3-273.2,427.3"/>
	<path id="path125_00000109030483472522368210000001647434017126879397_" class="st9" d="M-280.3,437.2h11.5v15.3c0,0,0,1.7,1.6,1.7
		c0,0,2-0.2,3.1-2.1c0,0,1.7-2.2,1.7-4.1v-18.5c0,0,0.2-6.7,9.2-6.7c0,0,8.9-0.3,8.9,8.4c0,0,0.5,4.1-2.8,9.9c0,0-1.5,2.7-3.1,5.2
		c0,0-1.2,1.9-2.4,3.5c0,0-0.9,1-0.9,2.3c0,0-0.1,2.2,2.2,2.2c0,0,2,0,3.6-1.8c0,0,2.4-2.2,3.6-5.8c0,0,2-4.3,2.1-9.6h8.5
		c0,0,0,0.8,0.3,1.7c0,0,0.3,1.3,2,3.6c0,0,2.4,3.4,3.1,4.6c0,0,1.8,2.7,1.8,6c0,0,0,3.3-2.4,5.7c0,0-2.6,3.3-6.4,3.3
		c0,0-2.7,0-5-1.3c0,0-2.9-1.6-4.2-3.3c0,0-0.1-0.2-0.5-0.2l-0.5,0.2c0,0-1.7,1.8-3.6,2.8c0,0-2.4,1.8-6,1.8c0,0-3.2,0-5.1-1.8
		c0,0-1.7-1.4-2-3.1l-0.4-0.3l-0.4,0.3c0,0-1.5,1.8-3.4,3.1c0,0-2,1.8-5.6,1.8c0,0-3.2,0-4.9-1.7c0,0-1.9-1.7-1.9-4.2v-13.4
		c0,0,0.1-1.3-1.9-1.3V437.2z M-240.3,450.3c-0.4,1-0.9,2.1-0.9,2.1l-0.2,0.6c0,0.3,0.2,0.6,0.2,0.6c0.4,0.7,1.1,1.1,1.1,1.1
		c0.7,0.5,1.7,0.5,1.7,0.5c1.3,0,2-1,2-1c0.7-0.9,0.7-1.9,0.7-1.9c0-0.7-0.5-1.5-0.5-1.5c-0.4-0.8-1.1-2.2-1.1-2.2
		c-0.4-0.7-0.9-1.6-0.9-1.6c-0.2-0.5-0.4-0.5-0.4-0.5l-0.4,0.6C-239.7,449-240.3,450.3-240.3,450.3z M-253.2,441.7l0.4-0.4
		c1.7-2.4,2.9-6.8,2.9-6.8c0.4-1.2,0.4-2.9,0.4-2.9c0-1.1-0.4-2.2-0.4-2.2c-0.5-1.1-1.3-1-1.3-1c-1,0-1.7,1.3-1.7,1.3
		c-0.7,1.1-0.7,3.1-0.7,3.1v8.2C-253.6,442.1-253.2,441.7-253.2,441.7"/>
	<path id="path129_00000124159838428281508220000003569548230015483294_" class="st9" d="M-225.4,449.5c0,0,0.2-6,3.8-9.1
		c0,0,3.5-3.5,9.1-3.5c0,0,5.6,0.1,8.6,3.2c0,0,0.9,0.9,1.4,1.6c0,0,0.3,0.4,0.6,0c0,0,1.8-2.1,3-2.9c0,0,2.4-2,5-2
		c0,0,2.2-0.1,3.4,1.1c0,0,1.5,1.2,2.2,2.7c0,0,0.4,0.6,1,0c0,0,1.2-1.3,2.6-2.3c0,0,2.3-1.7,5.5-1.7c0,0,2.9,0.1,4.2,1.5
		c0,0,2.4,1.9,2.4,4.5v13.5c0,0,0,1.6,1.5,1.7h1.5v4.2h-7.8c0,0-4.7-0.1-4.7-5.2v-9.6c0,0,0-2-2.5-2c0,0-2.8,0.1-2.8,2.4V462h-9.6
		v-14.9c0,0-0.1-1.4-1.2-1.4c0,0-1,0.1-1.6,0.9c0,0-0.5,0.4-0.2,1.1c0,0,0.2,1,0.2,2.2c0,0,0,5.5-3.4,8.7c0,0-3.4,3.6-9,3.6
		c0,0-5.6,0-8.8-3.2C-221.3,459-225.4,455.6-225.4,449.5z M-212.7,455.7c0,0,1.6,0.1,2.2-1.2c0,0,0.7-1.3,0.8-5v0
		c-0.2-3.7-0.8-5-0.8-5c-0.6-1.2-2.2-1.2-2.2-1.2h0c0,0-1.6-0.1-2.2,1.2c0,0-0.7,1.3-0.8,5v0c0.2,3.7,0.8,5,0.8,5
		C-214.4,455.7-212.8,455.7-212.7,455.7L-212.7,455.7"/>
	<path id="path133_00000053507699832727922870000002401171605355774899_" class="st9" d="M-165.6,457.7c0.6,0,1.1,0.2,1.5,0.6
		c0.4,0.4,0.6,0.9,0.6,1.5c0,0.6-0.2,1.1-0.6,1.5c-0.4,0.4-0.9,0.6-1.5,0.6c-0.6,0-1.1-0.2-1.5-0.6c-0.4-0.4-0.6-0.9-0.6-1.5
		c0-0.6,0.2-1.1,0.6-1.5C-166.7,457.9-166.2,457.7-165.6,457.7z M-163.2,459.8c0-0.7-0.2-1.2-0.7-1.7c-0.5-0.5-1-0.7-1.7-0.7
		c-0.7,0-1.2,0.2-1.7,0.7c-0.5,0.5-0.7,1-0.7,1.7c0,0.7,0.2,1.2,0.7,1.7c0.5,0.5,1,0.7,1.7,0.7s1.2-0.2,1.7-0.7
		C-163.4,461-163.2,460.5-163.2,459.8z M-165,459.3l-0.3,0.4l-0.4,0.1h-0.4v-1h0.4l0.6,0.1L-165,459.3z M-166.6,458.5v2.6h0.5v-1
		h0.4l0.5,0.1l0.3,0.6v0.2l0,0.1l0,0l0,0h0.4l0,0l0-0.1v-0.2v-0.2l-0.1-0.4l-0.4-0.3l0.4-0.1l0.3-0.5c0-0.3-0.1-0.6-0.4-0.7
		c-0.2-0.1-0.4-0.1-0.7-0.1H-166.6"/>
</g>
<g id="Capa_2">
</g>
</svg>
