<svg viewBox="0 0 676.61 173.719" height="173.719" width="676.61" xmlns:xlink="http://www.w3.org/1999/xlink" xmlns="http://www.w3.org/2000/svg" data-name="Grupo 492" id="Grupo_492">
  <defs>
    <clipPath id="clip-path">
      <rect fill="none" height="173.719" width="676.61" data-name="Rectángulo 24" id="Rectángulo_24"></rect>
    </clipPath>
  </defs>
  <g clip-path="url(#clip-path)" data-name="Grupo 491" id="Grupo_491">
    <path fill="#2bacfe" d="M20.908,41.179c11.611.24,23.12.271,34.207,4.821,16.543,6.789,29.037,17.841,37.452,33.611,9.615,18.019,24.671,27.785,45.116,27.956,36.795.306,61.438-38.66,45.283-71.773-4.855-9.951-4.522-20.434,5.086-28.971.847-.753,1.612-1.6,2.415-2.4,4.42-4.415,4.5-4.484,8.378.2,14.238,17.214,20.355,36.862,18.832,59.272-2.341,34.462-28.565,66.31-64.81,73.331-37.734,7.31-73.18-10.468-89.911-45.066-4.79-9.9-12.383-16.061-23.1-18.234-4.8-.973-9.756-.009-14.642-1.054C11.708,69.981.357,57.374.006,44.717c-.077-2.785.551-3.745,3.508-3.614,5.787.258,11.6.076,17.394.076" data-name="Trazado 177" id="Trazado_177"></path>
    <path fill="#2bacfe" d="M109.358,153.665a19.338,19.338,0,0,1-16.59,18.954c-8.987,1.362-18.006-4.339-20.918-13.222a19.394,19.394,0,0,1,8.79-22.8,3.393,3.393,0,0,1,4.377.318A71.959,71.959,0,0,0,105.4,148.3c3.218,1.16,4.551,2.718,3.954,5.366" data-name="Trazado 178" id="Trazado_178"></path>
    <path fill="#2bacfe" d="M200.053,151.721c-.136,12.334-8.725,20.88-19.1,20.943a19.59,19.59,0,0,1-19.438-19.123c-.028-2.354.709-3.552,3.069-4.34a74.217,74.217,0,0,0,21.892-11.6c1.959-1.508,3.441-1.46,5.348-.056,5.466,4.025,8.152,9.393,8.234,14.178" data-name="Trazado 179" id="Trazado_179"></path>
    <path fill="#2bacfe" d="M144.528,73.485a8.31,8.31,0,0,1-8.013-8.69A8.751,8.751,0,0,1,145.6,56.18a8.559,8.559,0,0,1,8.26,8.584c.024,5.062-3.968,8.794-9.33,8.721" data-name="Trazado 180" id="Trazado_180"></path>
    <path fill="#2bacfe" d="M124.778,93.654a8.456,8.456,0,0,1-8.387-8.391,8.579,8.579,0,0,1,8.766-8.825,8.4,8.4,0,0,1,8.591,8.537,8.675,8.675,0,0,1-8.97,8.679" data-name="Trazado 181" id="Trazado_181"></path>
    <path fill="#2bacfe" d="M165.321,53.239a8.131,8.131,0,0,1-8.5-8.525,8.571,8.571,0,0,1,8.569-8.686,8.918,8.918,0,0,1,8.677,8.718,8.544,8.544,0,0,1-8.746,8.493" data-name="Trazado 182" id="Trazado_182"></path>
    <path fill="#2bacfe" d="M142.543,88.84a8.445,8.445,0,0,1,8.526-8.614,8.612,8.612,0,0,1,8.775,8.442,8.651,8.651,0,1,1-17.3.172" data-name="Trazado 183" id="Trazado_183"></path>
    <path fill="#2bacfe" d="M162.844,68.786a8.471,8.471,0,0,1,8.44-8.769,8.627,8.627,0,0,1,.29,17.251,8.494,8.494,0,0,1-8.73-8.482" data-name="Trazado 184" id="Trazado_184"></path>
    <path fill="#1c1c1c" d="M388.131,31.507q0-14.717,0-29.433c0-2.028.022-2.053,1.961-2.054q15.326-.013,30.652,0A31.032,31.032,0,0,1,431.9,1.851c10.768,4.116,16.487,12.117,17.674,23.467.808,7.723.574,15.481.585,23.226a48.068,48.068,0,0,1-1.407,11.009c-2.479,10.6-9.223,17-19.577,19.741-6.146,1.625-12.425,1.252-18.675.81a44.175,44.175,0,0,1-7.789-1.27c-8.9-2.264-13.733-7.955-14.41-17.158-.194-2.626-.158-5.272-.164-7.908-.02-7.42-.007-14.841-.007-22.261M409.2,39.086v5.926c0,3.869-.026,7.737.009,11.6.024,2.6.439,3.153,3.02,3.652a26.86,26.86,0,0,0,8.346.351c4.519-.544,7.074-3.055,7.828-7.536a56.246,56.246,0,0,0,.541-9.107c.027-5.589.3-11.2-.562-16.755-.663-4.281-3.131-6.687-7.436-7.36-3.272-.511-6.569-.173-9.854-.234-1.85-.034-1.881.03-1.886,1.926-.016,5.844-.006,11.688-.006,17.532" data-name="Trazado 185" id="Trazado_185"></path>
    <path fill="#1c1c1c" d="M500.9,30.357a19.9,19.9,0,0,1-.289,4.636c-.318,4.357-.734,8.708-.991,13.068-.076,1.282-.487,1.666-1.748,1.656-6.263-.054-12.527-.031-18.791-.021-2.105,0-2.141.023-2.118,2.19a38.916,38.916,0,0,0,.165,6.173c.315,1.856.635,2.225,2.5,2.471a30.7,30.7,0,0,0,3.942.234c8.406.02,16.812.005,25.219.015,2.117,0,2.132.024,2.135,2.167.009,5.278-.041,10.556.033,15.833.018,1.326-.42,1.664-1.68,1.658-10.384-.056-20.768-.025-31.151-.088a34.893,34.893,0,0,1-9.008-1.378c-7.226-1.977-11.178-6.832-12.6-14.026a42.98,42.98,0,0,1-.624-8.369q-.029-27.089-.01-54.177V2.152c.005-2.306-.172-2.136,2.135-2.136q25.342,0,50.684,0c.33,0,.662.026.989,0,.982-.084,1.264.394,1.252,1.321-.039,2.885-.013,5.772-.013,8.658,0,2.309.016,4.618,0,6.927-.026,2.926.433,2.686-2.579,2.691q-8.778.016-17.554,0c-3.956,0-7.912-.012-11.868.006-1.923.009-1.945.035-1.965,1.869q-.036,3.339,0,6.679c.018,1.881.038,1.915,1.926,1.92,6.428.017,12.856,0,19.285.017a5.771,5.771,0,0,1,2.731.252" data-name="Trazado 186" id="Trazado_186"></path>
    <path fill="#1c1c1c" d="M257.8,40.081V3c0-.576.042-1.157-.007-1.729-.087-1.007.42-1.32,1.325-1.259.328.022.659,0,.988,0q14.948,0,29.893,0a33.168,33.168,0,0,1,9.036,1.125c8.824,2.482,14.541,8.148,16.93,16.971a40.236,40.236,0,0,1,.205,19.808c-2.339,10.117-9.862,17.266-21.625,18.666-4.514.538-9.047.281-13.573.343-1.96.026-1.979.032-1.981,2.05q-.015,9.765,0,19.528c.005,1.961.008,1.912-1.878,1.91-5.765-.009-11.529,0-17.294-.008-2,0-2.018-.025-2.019-2.014q-.009-19.157,0-38.315M278.988,28.3q0,3.707,0,7.412c0,.664-.061,1.419.914,1.4,3.7-.071,7.414.327,11.092-.226,2.936-.441,4.286-1.874,4.807-4.822a18.939,18.939,0,0,0,.117-6.387c-.678-4.193-2.488-5.91-6.729-6.041-2.879-.088-5.763.024-8.642-.038-1.156-.025-1.622.319-1.583,1.536.077,2.386.023,4.777.023,7.165" data-name="Trazado 187" id="Trazado_187"></path>
    <path fill="#1c1c1c" d="M385.9,80.181a3.327,3.327,0,0,1-1.941.225q-8.9.021-17.8.006c-2.429,0-2.1.2-2.838-2.123-.975-3.058-2.008-6.1-2.949-9.167a1.709,1.709,0,0,0-1.918-1.425c-5.522.049-11.045.059-16.567-.006a1.838,1.838,0,0,0-2.072,1.577c-.96,3.236-2,6.446-3.009,9.668-.249.8-.452,1.5-1.585,1.5-6.918-.042-13.835-.021-20.781-.021a3.248,3.248,0,0,1,.409-2.172Q326.8,43.831,338.78,9.432a21.109,21.109,0,0,1,1.386-3.162c3.073-5.66,7.65-6.895,13.1-6a8.576,8.576,0,0,1,5.818,3.853,21.67,21.67,0,0,1,2.4,5.131q11.926,34.284,23.832,68.576a4.93,4.93,0,0,1,.583,2.354m-35.3-44.636-.431.041L346.116,48.63h8.32c-1.31-4.46-2.576-8.772-3.842-13.085" data-name="Trazado 188" id="Trazado_188"></path>
    <path fill="#1c1c1c" d="M539.014.2a6.454,6.454,0,0,1,.178,2.658q.02,26.086.01,52.172c0,5.27.413,5.709,5.785,5.731,7.332.031,14.663.009,21.994.009a14.357,14.357,0,0,0,1.482-.008c1.278-.132,1.707.385,1.692,1.687-.062,5.439-.026,10.879-.027,16.319,0,.165-.013.33,0,.494.066.857-.366,1.186-1.178,1.148-.411-.019-.824,0-1.236,0q-11.862,0-23.723,0a42.545,42.545,0,0,1-9.556-1c-9.7-2.217-15.246-8.527-16.078-18.419-.166-1.969-.252-3.949-.254-5.925q-.03-25.962-.012-51.925c0-.33,0-.659,0-.989C518.085-.051,517.929,0,520.239.009c5.684.01,11.368,0,17.052.008A3.536,3.536,0,0,1,539.014.2" data-name="Trazado 189" id="Trazado_189"></path>
    <path fill="#1c1c1c" d="M296.19,130.46c.886-.546,1.033-1.414,1.381-2.129,5.482-11.268,10.972-22.532,16.367-33.841a2.935,2.935,0,0,1,3.164-2.043c5.147.13,10.3.041,15.449.051,2.16,0,2.184.021,2.185,2.176q.011,21.568,0,43.137v32.664a14.9,14.9,0,0,0,.007,1.495c.128,1.252-.3,1.755-1.658,1.726-3.986-.084-7.974-.029-11.961-.03-2.16,0-4.32-.026-6.479.011-.836.014-1.236-.255-1.195-1.133.038-.829,0-1.662,0-2.493V142.637c-.8-.262-.8.4-.994.8q-2.725,5.734-5.433,11.477a18.375,18.375,0,0,1-3.132,4.772c-4.345,4.642-10.589,4.637-14.9-.017a17.678,17.678,0,0,1-2.884-4.343q-2.941-6.044-5.88-12.09c-.207-.425-.307-.923-1.089-1.213v2.43q0,13.588,0,27.178c0,2.005-.026,2.027-2.038,2.031q-8.723.018-17.444,0c-1.84,0-1.869-.036-1.869-1.96q-.01-38.647,0-77.3c0-1.869.035-1.9,1.942-1.9,5.316-.016,10.633.045,15.949-.039a2.637,2.637,0,0,1,2.832,1.754c5.347,11.151,10.78,22.258,16.193,33.376.468.961.982,1.9,1.485,2.869" data-name="Trazado 190" id="Trazado_190"></path>
    <path fill="#1c1c1c" d="M482.981,173.667h-4.454c-5.978,0-11.958-.082-17.934.05a3.23,3.23,0,0,1-3.383-2.111c-4.014-7.825-8.115-15.6-12.218-23.383-.37-.7-.49-1.8-1.388-1.93a24.024,24.024,0,0,0-3.972-.052c-.373.009-.5.364-.511.716-.012.582-.02,1.163-.02,1.744q0,11.466-.005,22.931c0,2-.027,2.027-2.047,2.031q-8.718.017-17.437,0c-1.837,0-1.866-.034-1.867-1.949q-.009-30.159-.005-60.317a27.5,27.5,0,0,1,.658-5.932c1.615-7.333,6.47-11.758,14.2-12.551a107.6,107.6,0,0,1,22.624,0A25.316,25.316,0,0,1,477.059,113.8a30.769,30.769,0,0,1-.174,12.371,24.749,24.749,0,0,1-9.548,14.442c-.525.4-1.079.757-1.845,1.29l17.489,31.766m-43.845-53.234H439.1c0,1.827.009,3.653,0,5.48-.006.742.112,1.289,1.06,1.277,3.318-.041,6.653.159,9.95-.115,3.824-.318,6.156-3.5,6.1-7.773-.049-3.992-2.235-6.626-6.03-6.884-2.891-.2-5.807-.111-8.709-.032-1.618.045-2.235.689-2.314,2.32-.093,1.9-.022,3.818-.022,5.727" data-name="Trazado 191" id="Trazado_191"></path>
    <path fill="#1c1c1c" d="M553.783,92.5a5.616,5.616,0,0,1-1.259,2.432c-7.655,11.368-15.291,22.749-23.02,34.067a2.968,2.968,0,0,0-.061,3.912q12.417,18.972,24.671,38.049a6.779,6.779,0,0,1,1.308,2.387c-.576.571-1.272.308-1.878.31-6.813.024-13.626-.042-20.438.056a3.568,3.568,0,0,1-3.566-1.943c-4.264-7.03-8.646-13.987-12.989-20.968-.436-.7-.887-1.392-1.417-2.222-1.52,1.192-2.224,2.946-3.465,4.221a11.142,11.142,0,0,0-3.093,9.273c.269,3.3,0,6.647.083,9.97.031,1.336-.454,1.666-1.723,1.654-5.9-.059-11.8-.017-17.7-.032-1.814,0-1.84-.033-1.844-1.968-.014-5.9-.005-11.8-.005-17.706V95.88c0-.5-.01-1,0-1.5.043-1.852.046-1.879,1.971-1.884q8.6-.021,17.2,0c2.036,0,2.064.025,2.066,2.036.011,9.56,0,19.119.017,28.679a3.614,3.614,0,0,0,.252,2.1,6.071,6.071,0,0,0,1.808-2.223c6.415-9.5,12.851-18.985,19.16-28.554a4.125,4.125,0,0,1,4.046-2.081c6.552.111,13.107.043,19.872.043" data-name="Trazado 192" id="Trazado_192"></path>
    <path fill="#1c1c1c" d="M600.193,142.7h-6.762c-4.733,0-9.468.037-14.2-.025-1.2-.015-1.6.338-1.551,1.545.095,2.156-.016,4.322.081,6.478.093,2.077.628,2.652,2.647,2.932a25.548,25.548,0,0,0,3.48.158q12.955.018,25.911.01c2.119,0,2.136.02,2.141,2.2.01,5.318-.022,10.636.022,15.954.009,1.216-.259,1.759-1.644,1.749-10.546-.076-21.094-.03-31.64-.126a36.39,36.39,0,0,1-8.353-1.225c-7.747-1.91-11.991-6.99-13.388-14.656a38.347,38.347,0,0,1-.6-6.941q.029-27.921.01-55.841c0-.5,0-1,.011-1.5a.836.836,0,0,1,.933-.906c.581-.007,1.162-.009,1.744-.009h50.327c.415,0,.833.027,1.246,0,.938-.069,1.349.317,1.345,1.288q-.031,8.726,0,17.45c0,.872-.407,1.156-1.226,1.128-1.078-.038-2.159-.008-3.239-.008q-13.7,0-27.406,0c-2.489,0-2.371-.337-2.372,2.44,0,1.994-.01,3.988,0,5.983.013,2.02.023,2.039,1.995,2.042q9.468.015,18.936,0c3.228,0,3.267,0,3.046,3.106-.341,4.805-.735,9.607-1.125,14.408-.06.739-.223,1.469-.363,2.362" data-name="Trazado 193" id="Trazado_193"></path>
    <path fill="#1c1c1c" d="M340.045,173.5c-.279-.933.258-1.667.52-2.422q11.953-34.44,23.958-68.861a22.681,22.681,0,0,1,2.146-4.477c3.448-5.584,10.111-6.178,14.707-4.216a8.478,8.478,0,0,1,3.724,3.211,20.488,20.488,0,0,1,2.237,4.707q12.193,35.015,24.379,70.033c.21.606.635,1.19.448,1.932-.557.472-1.241.243-1.863.245-6.146.02-12.292-.041-18.437.052a2.086,2.086,0,0,1-2.418-1.79c-.959-3.261-2.1-6.469-3.083-9.724a1.686,1.686,0,0,0-1.914-1.438c-5.646.056-11.294.043-16.942.009a1.538,1.538,0,0,0-1.746,1.3c-1.021,3.417-2.2,6.787-3.2,10.209a1.656,1.656,0,0,1-1.911,1.415c-6.643-.046-13.288-.026-19.932-.036a3.09,3.09,0,0,1-.672-.15m36.5-44.982-.5-.051-4.021,13.151h8.406c-1.327-4.476-2.606-8.788-3.884-13.1" data-name="Trazado 194" id="Trazado_194"></path>
    <path fill="#1c1c1c" d="M656.814,143.218v27.433c0,.581-.034,1.165,0,1.745.062.977-.384,1.3-1.331,1.284-2.409-.043-4.819-.014-7.228-.014-3.739,0-7.478-.048-11.216.027-1.238.025-1.542-.412-1.531-1.577.05-5.237.021-10.474.021-15.711V115.256c0-.665,0-1.33-.01-1.995a.825.825,0,0,0-.931-.9c-.581-.005-1.163-.009-1.744-.009-5.068,0-10.136.01-15.2-.007-1.856-.006-1.879-.035-1.884-1.937q-.02-7.981,0-15.961c.005-1.906.033-1.938,1.9-1.943,6.231-.016,12.462-.006,18.693-.006h37.138a13.779,13.779,0,0,0,1.494-.009c1.149-.127,1.7.258,1.613,1.509s-.018,2.493-.018,3.739c0,4.323-.045,8.647.026,12.968.022,1.3-.369,1.691-1.677,1.675-5.4-.069-10.8-.039-16.2-.023-1.872.005-1.908.034-1.911,1.935q-.02,14.464-.006,28.929" data-name="Trazado 195" id="Trazado_195"></path>
  </g>
</svg>
