<?xml version="1.0" encoding="utf-8"?>
<!-- Generator: Adobe Illustrator 28.0.0, SVG Export Plug-In . SVG Version: 6.00 Build 0)  -->
<svg version="1.1" id="Capa_1" xmlns="http://www.w3.org/2000/svg" xmlns:xlink="http://www.w3.org/1999/xlink" x="0px" y="0px"
	 viewBox="0 0 255 167" style="enable-background:new 0 0 255 167;" xml:space="preserve">
<style type="text/css">
	.st0{fill:#1D1D1B;}
	.st1{fill:#141E68;}
	.st2{fill:#CE0E2D;}
	.st3{fill-rule:evenodd;clip-rule:evenodd;fill:#1D1D1B;}
	.st4{fill:#DE453B;}
	.st5{fill:#001E62;}
	.st6{fill:#FFFFFF;}
	.st7{fill:none;stroke:#E30613;stroke-width:10;stroke-miterlimit:10;}
	.st8{fill:#E30613;}
	.st9{fill:#CE1322;}
	.st10{fill-rule:evenodd;clip-rule:evenodd;fill:#0D00AA;}
	.st11{fill:#1F140F;}
</style>
<g>
	<g id="Ilustración_9_00000008853945714967016680000009659853231562467729_">
		<g>
			<g>
				<path class="st0" d="M132.2,128c-0.6,0.8-1.7,2.3-1.7,2.3H97.7V116h26v3.2l-19.7,0v2.2h19.7v3.2H104l0,2.3c0,0,13.1,0,19.7,0
					c0,0.9,0,1.7,0,2.7c0.5-0.7,10-13.6,10-13.6h11c0,0,9.3,12.8,9.9,13.6c0-4.6,0-13.7,0-13.7s14.5,0,21.5,0c0.7,0,1.4,0.1,2.1,0.3
					c2.1,0.5,3.3,1.9,4,3.8c0.9,2.4,0.6,4.8-0.4,7.1c-0.7,1.5-2,2.4-3.6,2.8c-0.9,0.2-1.7,0.3-2.7,0.3c-9,0-17.9,0-26.9,0
					c-0.2,0-0.5,0-0.7,0c-0.6-0.8-1.2-1.6-1.7-2.4C141.4,128,136.8,128,132.2,128z M161,125.8c0,0,9,0,13.2,0c0.3,0,0.5,0,0.8,0
					c0.7-0.1,1.2-0.6,1.4-1.2c0.4-1,0.3-2-0.1-3c-0.3-0.6-0.7-0.9-1.4-1c-0.2,0-0.5,0-0.7,0c-4.2,0-13.3,0-13.3,0V125.8z
					 M134.6,124.7h9.1l-3.7-5h-1.8L134.6,124.7z"/>
				<path class="st0" d="M68.2,116h6.3v4.7h13.4V116l6.4,0v14.3h-6.4l0-5.6c0,0-8.9,0-13.4,0c0,1.9,0,5.6,0,5.6h-6.3V116z"/>
			</g>
			<g>
				<g>
					<path class="st0" d="M184,113c0.1,0,0.4,0,0.6,0c0.3,0,0.5,0.1,0.7,0.2c0.1,0.1,0.2,0.2,0.2,0.4c0,0.3-0.2,0.4-0.4,0.5v0
						c0.1,0.1,0.2,0.2,0.3,0.4c0.1,0.3,0.1,0.5,0.2,0.6h-0.4c0-0.1-0.1-0.2-0.1-0.5c-0.1-0.3-0.2-0.3-0.4-0.4h-0.2v0.8H184V113z
						 M184.4,113.8h0.3c0.3,0,0.4-0.1,0.4-0.3c0-0.2-0.2-0.3-0.4-0.3c-0.1,0-0.2,0-0.3,0V113.8z"/>
				</g>
			</g>
			<g>
				<path class="st0" d="M184.6,116.1c-1.2,0-2.2-1-2.2-2.2c0-1.2,1-2.2,2.2-2.2c1.2,0,2.2,1,2.2,2.2
					C186.8,115.1,185.8,116.1,184.6,116.1z M184.6,112.3c-0.9,0-1.6,0.7-1.6,1.6c0,0.9,0.7,1.6,1.6,1.6c0.9,0,1.6-0.7,1.6-1.6
					C186.3,113,185.5,112.3,184.6,112.3z"/>
			</g>
		</g>
	</g>
	<g>
		<path class="st0" d="M92.3,107.4l9.3-5.8c0,0,5.6-47.2,26-49.1c13.2-1.2,21.3,23.8,21.3,23.8l7.7-4.5c0,0-9.6-34.8-28.5-34.8
			S95.7,71.8,92.3,107.4z"/>
		<circle class="st0" cx="128.2" cy="65" r="5.8"/>
	</g>
</g>
<g id="Capa_2">
</g>
</svg>
