<?xml version="1.0" encoding="utf-8"?>
<!-- Generator: Adobe Illustrator 28.0.0, SVG Export Plug-In . SVG Version: 6.00 Build 0)  -->
<svg version="1.1" id="Capa_1" xmlns="http://www.w3.org/2000/svg" xmlns:xlink="http://www.w3.org/1999/xlink" x="0px" y="0px"
	 viewBox="0 0 255 167" style="enable-background:new 0 0 255 167;" xml:space="preserve">
<style type="text/css">
	.st0{fill:#1D1D1B;}
	.st1{fill:#141E68;}
	.st2{fill:#CE0E2D;}
	.st3{fill-rule:evenodd;clip-rule:evenodd;fill:#1D1D1B;}
	.st4{fill:#DE453B;}
	.st5{fill:#001E62;}
	.st6{fill:#FFFFFF;}
	.st7{fill:none;stroke:#E30613;stroke-width:10;stroke-miterlimit:10;}
	.st8{fill:#E30613;}
	.st9{fill:#CE1322;}
	.st10{fill-rule:evenodd;clip-rule:evenodd;fill:#0D00AA;}
	.st11{fill:#1F140F;}
</style>
<g id="g3164_00000128467015952899999160000002675379273563899021_">
	<g id="g3164_00000178906428178744669010000010166331336424739477_" transform="matrix(4,0,0,4,-1870.7628,-1229.1773)">
		<path id="path1572_00000165194367645114973960000012445755305029321145_" class="st0" d="M522.4,326.2H518l-0.2,0.7h0.7l-1,2.3
			h-0.7l-0.3,0.7h3.3l0.3-0.7h-0.6l0.3-0.8h2.1c0.8,0,1.2-0.6,1.4-1c0.1-0.3,0.2-0.5,0.2-0.8C523.4,326.4,523.2,326.2,522.4,326.2z
			 M521.4,327.2c-0.1,0.1-0.1,0.2-0.1,0.3c0,0.1-0.1,0.2-0.4,0.2h-0.8l0.3-0.8h0.7C521.4,327,521.4,327.2,521.4,327.2z"/>
		<path id="path1574_00000016772395277557314680000003927057346906652862_" class="st0" d="M493.3,326.7c-0.1-0.3-0.4-0.4-0.6-0.4
			H488l-0.3,0.7h0.6l-1,2.3h-0.7l-0.3,0.7h4.8l0.3-0.1c0.8-0.1,1.3-0.9,1.6-1.5C493.1,327.9,493.6,327.3,493.3,326.7z M491.3,327.2
			c0,0.3-0.5,1.5-0.8,1.9c-0.2,0.1-0.2,0.2-0.4,0.2h-0.9l1-2.3h0.8C491.2,327,491.3,327.1,491.3,327.2z"/>
		<path id="path1576_00000147925324341471579800000016188947972624564151_" class="st0" d="M517.2,326.8c-0.1-0.4-0.5-0.5-0.8-0.5
			c-0.6-0.1-1.2-0.1-1.8-0.1c-0.7,0-1.3,0-1.9,0.2c-0.7,0.2-0.9,0.8-1.3,1.7c-0.2,0.5-0.5,0.8-0.3,1.4c0.1,0.3,0.5,0.5,0.9,0.5
			c0.4,0,0.7,0,1.2,0h0.1c0.5,0,1.1,0,1.7-0.1c0.4,0,1-0.3,1.3-0.7c0.3-0.5,0.3-0.5,0.7-1.4C517,327.7,517.3,327.2,517.2,326.8z
			 M515.2,327.5c-0.2,0.5-0.4,0.8-0.6,1.2c-0.3,0.7-1.2,0.6-1.2,0.6c-0.2,0-0.7,0-0.5-0.6c0.1-0.3,0.4-0.9,0.5-1.2
			c0.1-0.2,0.3-0.6,1.1-0.6C515.4,326.8,515.3,327.3,515.2,327.5z"/>
		<path id="path1578_00000046310041885220865820000002880234961901543303_" class="st0" d="M499,327c0,0-0.6,1.6-1,2.3
			c-0.3,0.6-1,0.7-1.7,0.8c-0.7,0-1.4,0.1-2.1-0.1c-0.3-0.1-0.6-0.3-0.6-0.6c-0.1-0.2,0-0.4,0.1-0.6c0.3-0.6,0.7-1.8,0.7-1.8h-0.6
			l0.3-0.7h3.3l-0.3,0.7h-0.6l-0.8,1.8c0,0.1,0,0.3,0.1,0.4c0.2,0.2,0.6,0.2,0.9,0.1c0.3-0.1,0.5-0.3,0.6-0.5l0.7-1.8h-0.6l0.3-0.7
			h2.2l-0.3,0.7H499z"/>
		<path id="path1580_00000103243453010982189100000010355604901984958886_" class="st0" d="M505.4,327l-1.3,3h-1.6l-1.2-2.3
			l-0.7,1.6h0.6L501,330l-2.3,0l0.3-0.7h0.7l1-2.3h-0.6l0.3-0.7h2.4l1.1,2.2l0.7-1.5h-0.6l0.3-0.7h2.2l-0.3,0.7H505.4z"/>
		<path id="path1582_00000165215805020332002760000012321441079664069524_" class="st0" d="M509.2,327l-1,2.3h1.1l1-1.1h0.7
			l-0.8,1.8h-5l0.3-0.7h0.7l1-2.3h-0.6l0.3-0.7h3.4l-0.3,0.7H509.2z"/>
		<path class="st0" d="M480.4,327.1h-2.7l-0.3,0.6h0.3l-0.4,0.9h-0.3l-0.3,0.6h2.9c0.6,0,1.1,0,1.4-0.8c0.1-0.2,0.1-0.4,0.1-0.6
			C481.2,327.4,481,327.1,480.4,327.1z M479.9,328.2c-0.2,0.4-0.5,0.4-0.7,0.4h-0.6l0.4-0.9h0.7c0.2,0,0.3,0.1,0.3,0.3
			C479.9,328,479.9,328.1,479.9,328.2z"/>
		<path class="st0" d="M485,328.2l-9.1-5.4c0,0,2.6,2.4,2.8,2.5c-1.8,0-2.9,1.5-2.9,2.8c0,1.3,1.1,2.8,3,2.8l-2.7,2.5L485,328.2z
			 M476.4,328.2c0-1.4,1.1-2.6,2.6-2.6s2.6,1.2,2.6,2.6c0,1.4-1.1,2.6-2.6,2.6S476.4,329.6,476.4,328.2z"/>
		<path class="st0" d="M480.4,327.1h-2.7l-0.3,0.6h0.3l-0.4,0.9h-0.3l-0.3,0.6h2.9c0.6,0,1.1,0,1.4-0.8c0.1-0.2,0.1-0.4,0.1-0.6
			C481.2,327.4,481,327.1,480.4,327.1z M479.9,328.2c-0.2,0.4-0.5,0.4-0.7,0.4h-0.6l0.4-0.9h0.7c0.2,0,0.3,0.1,0.3,0.3
			C479.9,328,479.9,328.1,479.9,328.2z"/>
		<path id="path1588_00000021117377126114243010000001848463520296042115_" class="st0" d="M480.4,327.1h-2.7l-0.3,0.6h0.3l-0.4,0.9
			h-0.3l-0.3,0.6h2.9c0.6,0,1.1,0,1.4-0.8c0.1-0.2,0.1-0.4,0.1-0.6C481.2,327.4,481,327.1,480.4,327.1z M479.9,328.2
			c-0.2,0.4-0.5,0.4-0.7,0.4h-0.6l0.4-0.9h0.7c0.2,0,0.3,0.1,0.3,0.3C479.9,328,479.9,328.1,479.9,328.2z"/>
	</g>
</g>
<g id="Capa_2">
</g>
</svg>
