<?xml version="1.0" encoding="utf-8"?>
<!-- Generator: Adobe Illustrator 28.0.0, SVG Export Plug-In . SVG Version: 6.00 Build 0)  -->
<svg version="1.1" id="Capa_1" xmlns="http://www.w3.org/2000/svg" xmlns:xlink="http://www.w3.org/1999/xlink" x="0px" y="0px"
	 viewBox="0 0 255 167" style="enable-background:new 0 0 255 167;" xml:space="preserve">
<style type="text/css">
	.st0{fill:#1D1D1B;}
	.st1{fill:#141E68;}
	.st2{fill:#CE0E2D;}
	.st3{fill-rule:evenodd;clip-rule:evenodd;fill:#1D1D1B;}
	.st4{fill:#DE453B;}
	.st5{fill:#001E62;}
	.st6{fill:#FFFFFF;}
	.st7{fill:none;stroke:#E30613;stroke-width:10;stroke-miterlimit:10;}
	.st8{fill:#E30613;}
	.st9{fill:#CE1322;}
	.st10{fill-rule:evenodd;clip-rule:evenodd;fill:#0D00AA;}
	.st11{fill:#1F140F;}
</style>
<g id="Ilustración_10_00000140699587607073333720000004572172292366711215_">
	<g>
		<path class="st4" d="M90.6,76.6H71v20h-8.4V70.4h32.8c4.6,0,7.4,3,7.4,6.6v19.5h-8V81.1C94.7,78.5,93.4,76.6,90.6,76.6"/>
		<path class="st4" d="M140.2,96.6h-33.3V77.1c0-4,2.4-6.6,7.2-6.6h32.8v21.1C146.9,94.2,144.5,96.6,140.2,96.6 M139,87V76.6h-20.1
			c-2.2,0-3.5,1.5-3.5,3.3v10.7H135C136.9,90.5,139,89.4,139,87"/>
		<path class="st4" d="M182.3,79.8c0.3,0.2,0.6,0.1,0.9-0.1l9-8c0.5-0.4,0.2-1.3-0.5-1.3h-6.9c-0.6,0-1.6,0.5-2.3,0.9
			c-1.8,1.1-5,3.1-8.1,5l5,3.1c0.3-0.1,0.6-0.1,0.9-0.1C181.1,79.3,181.7,79.5,182.3,79.8"/>
		<path class="st4" d="M177.4,80.6c-2-1.2-4-2.4-4.9-3c-3.6-2.2-7.9-4.9-10-6.2c-0.7-0.4-1.7-0.9-2.3-0.9h-6.9c-0.7,0-1,0.8-0.5,1.3
			l12.4,11.1c0.3,0.2,0.4,0.5,0.4,0.7c0,0.2-0.1,0.5-0.4,0.7l-12.4,11.1c-0.5,0.4-0.2,1.3,0.5,1.3h6.9c0.6,0,1.6-0.5,2.3-0.9
			c2.1-1.3,6.4-3.9,10-6.2c0.9-0.6,2.9-1.8,4.9-3c-0.7-0.7-1.2-1.8-1.2-2.9C176.2,82.3,176.6,81.3,177.4,80.6"/>
		<polygon class="st4" points="179.4,70.9 172.5,70.9 165.5,70.9 172.5,75.2 		"/>
		<path class="st4" d="M192.2,95.3l-9.1-8.1c-0.2-0.2-0.6-0.2-0.9-0.1c-0.6,0.3-1.2,0.5-1.9,0.5c-0.3,0-0.6,0-0.8-0.1l-5.1,3.1
			c3.1,1.9,6.3,3.9,8.1,5c0.7,0.4,1.7,0.9,2.3,0.9h6.9C192.4,96.6,192.7,95.7,192.2,95.3"/>
		<polygon class="st4" points="165.5,96.1 172.5,96.1 179.4,96.1 172.5,91.8 		"/>
	</g>
</g>
<g id="Capa_2">
</g>
</svg>
