<?xml version="1.0" encoding="utf-8"?>
<!-- Generator: Adobe Illustrator 28.0.0, SVG Export Plug-In . SVG Version: 6.00 Build 0)  -->
<svg version="1.1" id="Capa_1" xmlns="http://www.w3.org/2000/svg" xmlns:xlink="http://www.w3.org/1999/xlink" x="0px" y="0px"
	 viewBox="0 0 255 167" style="enable-background:new 0 0 255 167;" xml:space="preserve">
<style type="text/css">
	.st0{fill:#1D1D1B;}
	.st1{fill:#141E68;}
	.st2{fill:#CE0E2D;}
	.st3{fill-rule:evenodd;clip-rule:evenodd;fill:#1D1D1B;}
	.st4{fill:#DE453B;}
	.st5{fill:#001E62;}
	.st6{fill:#FFFFFF;}
	.st7{fill:none;stroke:#E30613;stroke-width:10;stroke-miterlimit:10;}
	.st8{fill:#E30613;}
	.st9{fill:#CE1322;}
	.st10{fill-rule:evenodd;clip-rule:evenodd;fill:#0D00AA;}
	.st11{fill:#1F140F;}
</style>
<g>
	<path class="st5" d="M91.8,59c-8.1,0-17,5-22.6,9.6l0.4,0.7c8.7-6.1,20.7-10,24-4.1c1.7,3.1-1.2,9.4-5.4,14.4
		c1-2.2,0.4-6.4-5.5-6.4c-9.7,0-28.8,12.9-28.8,26c0,5.3,3.6,8.7,9.7,8.7c16.1,0,38-26.4,38-39.7C101.7,63.5,99,59,91.8,59z
		 M69.2,93.7c-2.8,0-4.1-2.1-3.4-4.6c1.5-5.1,10.7-12.7,17-12.7c4.6,0,4.3,4.1,1.6,7.6l-1.5,1.7C77.5,90.9,72.6,93.7,69.2,93.7z"/>
	<path class="st5" d="M127.5,73c-1.5-1.8-3.9-2.6-5.6-2.6h-9.4l-1.6,6h8.9l0.9,0.1c0,0,0.8,0.1,1.3,0.7c0.4,0.5,0.4,1.2,0.1,2.3
		l-0.4,1.6H116c-4.8,0-11.5,3.5-13,9c-0.7,2.8-0.1,5.2,1.4,7c1.4,1.7,4.2,2.7,7.1,2.7h5.2l0,0h6.6l5.4-20
		C129.4,76.3,128.4,74.2,127.5,73 M112.6,93.7c-0.9,0-1.7-0.3-2.2-0.9c-0.5-0.6-0.7-1.5-0.4-2.4c0.5-2,2.7-3.6,4.9-3.6h5.2l-1.8,6.9
		H112.6z"/>
	<path class="st5" d="M192.2,70.4c-2.5,0-4.9,0.7-6.8,2.2c-2,1.5-3,3.2-3.6,5.6c-1.4,5.2,2.7,7.7,6,9.5c2.3,1.3,4.4,2.4,3.9,4
		c-0.3,1.2-0.8,2.2-3.7,2.2h-8.8l-1.6,6h9.8c2.6,0,5-0.5,7-2c2-1.5,3.1-3.6,3.7-6.1c0.7-2.4,0.2-4.7-1.3-6.5
		c-1.3-1.5-3.2-2.5-4.8-3.4c-2.1-1.1-4.1-2.2-3.7-3.5c0.2-0.8,1-1.9,2.7-1.9h8.6l1.6-6L192.2,70.4"/>
	<path class="st5" d="M141.1,70.4c-2.5,0-4.9,0.7-6.8,2.2c-2,1.5-3,3.2-3.6,5.6c-1.4,5.2,2.7,7.7,6,9.5c2.3,1.3,4.4,2.4,3.9,4
		c-0.3,1.2-0.8,2.2-3.7,2.2H128l-1.6,6h9.8c2.6,0,5-0.5,7-2c2-1.5,3.1-3.6,3.7-6.1c0.7-2.4,0.2-4.7-1.3-6.5
		c-1.3-1.5-3.2-2.5-4.8-3.4c-2.1-1.1-4.1-2.2-3.7-3.5c0.2-0.8,1-1.9,2.7-1.9h8.6l1.6-6L141.1,70.4"/>
	<polyline class="st5" points="154.5,70.4 146.8,99.7 153.3,99.7 160.9,70.4 154.5,70.4 	"/>
	<path class="st5" d="M178.1,70.4c-11.4,0-17.3,7.6-19.2,14.6c-2.3,8.4,2.2,14.7,10.3,14.7h5.5l1.6-6h-5.5c-3.1,0-7.2-2.4-5.5-8.7
		c1.3-5,6.2-8.7,11.6-8.7h3.5l1.6-6L178.1,70.4"/>
</g>
<g id="Capa_2">
</g>
</svg>
