<?xml version="1.0" encoding="utf-8"?>
<!-- Generator: Adobe Illustrator 28.0.0, SVG Export Plug-In . SVG Version: 6.00 Build 0)  -->
<svg version="1.1" id="Capa_1" xmlns="http://www.w3.org/2000/svg" xmlns:xlink="http://www.w3.org/1999/xlink" x="0px" y="0px"
	 viewBox="0 0 255 167" style="enable-background:new 0 0 255 167;" xml:space="preserve">
<style type="text/css">
	.st0{fill:#1D1D1B;}
	.st1{fill:#141E68;}
	.st2{fill:#CE0E2D;}
	.st3{fill-rule:evenodd;clip-rule:evenodd;fill:#1D1D1B;}
	.st4{fill:#DE453B;}
	.st5{fill:#001E62;}
	.st6{fill:#FFFFFF;}
	.st7{fill:none;stroke:#E30613;stroke-width:10;stroke-miterlimit:10;}
	.st8{fill:#E30613;}
	.st9{fill:#CE1322;}
	.st10{fill-rule:evenodd;clip-rule:evenodd;fill:#0D00AA;}
	.st11{fill:#1F140F;}
</style>
<g id="Ilustración_1_00000142157146405800442320000002890924956032300197_">
	<path class="st1" d="M68.6,68.5c-1.4,0-5.5,0.1-8.8,3.4c-3,2.9-6.4,6.1-7.6,7.3h30.6L88,68.5H68.6z M47,84.1L31.8,98.5l35.4,0
		c0.3,0,5.8,0.2,7.7-3.7c1.9-3.7,4.6-9.2,5.3-10.7L47,84.1L47,84.1z M75.1,96.8l0,0.2h0.5l-0.3,1.3h0.3l0.3-1.3h0.5l0.1-0.2H75.1z
		 M77.2,96.8l0.1,0.6c0,0.2,0,0.4,0.1,0.5h0c0.1-0.2,0.2-0.3,0.3-0.5l0.4-0.6h0.4l-0.2,1.5h-0.3l0.1-0.6c0-0.2,0.1-0.4,0.1-0.6h0
		c-0.1,0.2-0.2,0.4-0.3,0.6l-0.4,0.6h-0.3L77,97.6c0-0.2,0-0.4-0.1-0.6l-0.1,0.2c0,0.1-0.1,0.3-0.1,0.4l-0.2,0.6h-0.3l0.4-1.5H77.2z
		 M168.2,77.5L168.2,77.5l0.6,0c6,0,7.2,0.5,8.5,2c1,1.1,1.2,2.2,0.8,3.9c0,0-1,4.3-1.2,5c-0.3,1.2-0.9,2.7-2.4,3.7
		c-1.8,1.1-4.7,1.1-7.7,1l-3.6,0c-6,0-7.6-2.5-7.1-4.7c0.5-2,1.1-4.5,1.2-4.9l0-0.1c0.4-1.7,0.6-3.2,2.6-4.6
		C161.7,77.5,164.6,77.5,168.2,77.5L168.2,77.5z M138.4,74L138.4,74l4.6,0c0.1,0,0.3,0.1,0.4,0.2c0.1,0.2,0.2,0.4,0.1,0.7l-0.6,2.7
		h5.1c0.5,0,2.4,0,3,0.1c0.7,0,1.3,0.1,2,0.3c3.1,1,4.1,3,3.2,6.4c0,0-0.7,3.3-1,4.1c-1.2,4.2-5.4,4.7-9.4,4.7c-2.7,0-11.1,0-12.4,0
		h-0.2l4.4-18.3C137.7,74.3,138,74,138.4,74z M189.4,77.6L189.4,77.6l9.7,0c0.1,0,2.4,0,3.1,0.1c0.7,0,1.3,0.2,2,0.3
		c3.1,0.9,4.1,3.1,3.2,6.4l-2,8.7l-13,0c-0.1,0-3.2,0-4-0.1c-0.8-0.1-1.6-0.3-2.1-0.6c-1.6-0.8-2.2-2.1-1.8-3.9
		c0.2-1.1,0.8-2,1.7-2.8c0.9-0.8,1.9-1.4,3.1-1.7c1.1-0.3,2.8-0.4,5.1-0.4h6.5c0.4,0,0.6-0.1,0.7-0.5c0.4-1.1-0.2-2-2.3-2h-10.9
		c-0.1,0-0.3-0.1-0.4-0.2c-0.1-0.2-0.2-0.4-0.1-0.7l0.4-1.8C188.5,77.9,188.9,77.6,189.4,77.6L189.4,77.6z M93.1,73.9L93.1,73.9
		l11.5,0c1.2,0,3.3,0.1,4.9,0.6c1.4,0.4,2.3,1.2,2.8,2.3c0.3,0.7,0.4,1.4,0.2,2.3c-0.3,1.1-0.9,2.1-1.9,2.9c-1,0.9-1.8,1.3-1.8,1.3
		c-0.2,0.1-0.3,0.3-0.3,0.4c0,0.1,0,0.1,0.1,0.1c0.3,0.1,3,1.7,3,3.9c0.3-0.7,0.8-1.4,1.4-2c0.9-0.8,1.9-1.4,3.1-1.7
		c1.1-0.3,2.8-0.4,5.1-0.4h6.4c0.4,0,0.6-0.1,0.7-0.5c0.4-1.1-0.2-2-2.3-2h-10.7c-0.1,0-0.3-0.1-0.4-0.2c-0.1-0.2-0.2-0.4-0.1-0.7
		l0.4-1.8c0.1-0.5,0.4-0.8,1-0.8h9.7c0.3,0,2.4,0,3,0.1c0.7,0,1.3,0.2,2,0.3c3.1,0.9,4.2,2.9,3.3,6.4l-2.1,8.7l-11.8,0h-1.1
		c-0.1,0-3.2,0-4-0.1c-0.8-0.1-1.5-0.3-2.1-0.6c-1.5-0.8-2-1.9-1.8-3.5l0,0c-0.4,0.9-1,1.7-1.9,2.3c-1,0.7-1.8,1.1-3.6,1.5
		c-1.4,0.3-4.6,0.3-4.8,0.3c-0.3,0-0.9,0-1.2,0l-12,0l4.4-18.5C92.4,74.2,92.8,73.9,93.1,73.9L93.1,73.9z M217.3,91.5l-0.1,0.2h-0.6
		l-0.3,1.4H216l0.3-1.4h-0.6l0.1-0.2H217.3L217.3,91.5z M218,91.5l0.1,0.6c0,0.2,0,0.4,0.1,0.6h0c0.1-0.2,0.2-0.4,0.3-0.6l0.4-0.6
		h0.5l-0.2,1.6h-0.3l0.1-0.7c0-0.2,0.1-0.5,0.1-0.7h0c-0.1,0.2-0.2,0.4-0.4,0.6l-0.4,0.7h-0.3l-0.1-0.7c0-0.2-0.1-0.4-0.1-0.6
		l-0.1,0.2c0,0.2-0.1,0.3-0.1,0.5l-0.2,0.6h-0.3l0.5-1.6L218,91.5L218,91.5z M186.7,74c0.1,0,0.3,0.1,0.4,0.2
		c0.1,0.2,0.2,0.4,0.1,0.7l-4.4,18.3h-6l4.4-18.3c0.1-0.5,0.5-0.8,0.8-0.8H186.7z M222.7,74c0.1,0,0.3,0.1,0.4,0.2
		c0.1,0.2,0.1,0.4,0.1,0.7l-0.5,2.2c-0.1,0.5-0.5,0.8-0.8,0.8h-5.1c-0.3,0-0.5,0.2-0.6,0.7l-3.5,14.5h-6.3l3.5-14.6
		c0.1-0.2,0.1-0.4,0-0.5c-0.1-0.1-0.2-0.1-0.3-0.1h-2.2c-0.1,0-0.3-0.1-0.4-0.2c-0.1-0.2-0.2-0.4-0.1-0.7l0.6-2.3
		c0.1-0.5,0.5-0.7,0.8-0.7H222.7z M127.1,87.1h-6.7c-1.2,0-1.7,0.1-2.1,0.3c-0.4,0.2-0.7,0.6-0.8,1c-0.1,0.5,0.1,0.9,0.4,1
		c0.4,0.2,0.9,0.2,2,0.2h6.4c0.3,0,0.6-0.3,0.7-0.7l0.3-1.3c0-0.2,0-0.4-0.1-0.6C127.3,87.1,127.2,87.1,127.1,87.1L127.1,87.1z
		 M200.2,87.1h-6.7c-1.2,0-1.7,0.1-2.1,0.3c-0.4,0.2-0.7,0.6-0.8,1c-0.1,0.5,0.1,0.9,0.4,1c0.4,0.2,0.9,0.2,2.1,0.2h6.4
		c0.3,0,0.6-0.3,0.7-0.7l0.3-1.3c0.1-0.2,0-0.4-0.1-0.6C200.4,87.1,200.3,87.1,200.2,87.1L200.2,87.1z M100.8,85.3h-3.3
		c-0.3,0-0.6,0.3-0.7,0.6L96.1,89c0,0.2,0,0.4,0.1,0.5c0.1,0.1,0.2,0.1,0.3,0.1c0,0,3,0,3.4,0c0,0,1,0,1.5,0
		c0.4-0.1,0.9-0.1,1.3-0.3c1-0.4,1.6-1.1,1.8-1.9c0.2-0.7-0.1-1.3-0.9-1.7c-0.9-0.4-2.2-0.4-2.9-0.4H100.8z M146.1,81.7h-4.2v0
		l-1.7,7.1h4.9c1.8,0,3.6-0.2,4.1-2.1c0.1-0.4,0.4-1.9,0.4-1.9c0.4-1.5-0.1-2.5-1.4-2.9c-0.3-0.1-0.6-0.1-0.9-0.1
		C147.1,81.7,146.1,81.7,146.1,81.7L146.1,81.7z M166.3,81.7c-1.2,0-2.2,0.1-2.8,0.6c-1,0.7-1.1,1.2-1.5,3c-0.4,1.6-0.5,2.1,0.3,2.8
		c0.8,0.7,2.2,0.7,4.1,0.7l0.8,0c1.6,0,2.8,0,3.8-0.5c1.1-0.7,1.3-1.4,1.5-2.5l0.1-0.4l0.1-0.3c0.2-1,0.4-1.8-0.2-2.4
		c-0.7-0.8-1.3-1-4.6-1L166.3,81.7L166.3,81.7z M103.1,77.4h-3.8c-0.3,0-0.6,0.3-0.7,0.6L98,81.1c0,0.2,0,0.4,0.1,0.5
		c0.1,0.1,0.2,0.1,0.3,0.1h3.5c0.2,0,1,0,1.4-0.1c0.4-0.1,0.9-0.2,1.3-0.4c1-0.5,1.6-1.1,1.8-1.9C106.8,77.7,104.8,77.4,103.1,77.4z
		"/>
</g>
<g id="Capa_2">
</g>
</svg>
