<svg xmlns="http://www.w3.org/2000/svg" viewBox="0 0 1256.98 309.55">
  <path fill="#fff" d="M52.5,3.92h61.34c31.35.11,47.02,15.11,47.02,44.98,0,6.02-.66,12.67-1.96,19.93l-7.72,44.29c-5.52,31.69-22.55,52.19-51.09,61.5-6.83,2.27-16.28,3.41-28.35,3.41h-2.95l-22.04,126.07H0L52.5,3.92ZM90.96,51.79l-13.76,78.2h5.61c5.05,0,8.37-.28,9.97-.85,6.36-2.5,10.25-7.84,11.65-16.01l7.72-44.29c.37-2.04.56-3.92.56-5.62,0-7.61-3.74-11.41-11.23-11.41h-10.53Z"/>
  <path fill="#fff" d="M271.6,196.43l-5.47,107.67h-47.17l3.23-62.35h-34.39l-18.81,62.35h-47.02l32-107.16L216.29,3.92h60.64l-5.33,192.51Z"/>
  <path fill="#fff" d="M329.84,3.92h64.71c31.35.11,47.02,15.11,47.02,44.98,0,6.02-.66,12.67-1.96,19.93l-29.76,170.54c-7.58,43.05-30.98,64.62-70.19,64.74h-62.32L329.84,3.92ZM368.3,51.79l-35.93,204.44h13.9c9.17,0,14.79-5.62,16.84-16.87l29.76-170.54c.37-2.04.56-3.92.56-5.62,0-7.61-3.74-11.41-11.23-11.41h-13.9Z"/>
  <path fill="#fff" d="M472.02,3.92h110.05l-8.28,47.87h-63.31l-13.76,78.2h54.46l-8.42,48.04h-54.46l-13.76,78.2h63.31l-8.28,47.87h-110.05L472.02,3.92Z"/>
  <path fill="#fff" d="M546.4,304.1L598.9,3.92h46.74l-44.22,252.31h63.31l-8.28,47.87h-110.05Z"/>
  <path fill="#fff" d="M796.38,244.64c-7.58,43.16-31.58,64.79-72.01,64.91-33.97,0-50.96-15.33-50.96-46,0-5.79.61-12.1,1.83-18.91l31.44-179.91c7.58-43.16,31.54-64.74,71.87-64.74,34.06,0,51.09,15.28,51.09,45.83,0,5.79-.61,12.1-1.82,18.91l-7.44,42.59h-46.74l7.44-42.59c.37-2.04.56-3.86.56-5.45,0-7.61-3.74-11.47-11.23-11.58h-.28c-9.08,0-14.65,5.68-16.7,17.04l-31.44,179.91c-.38,1.93-.56,3.75-.56,5.45,0,7.61,3.79,11.41,11.37,11.41,9.26,0,14.88-5.62,16.84-16.87l7.44-42.59h46.74l-7.44,42.59Z"/>
  <path fill="#fff" d="M984.03,64.74c7.58-43.16,31.54-64.74,71.87-64.74,34.06,0,51.09,15.28,51.09,45.83,0,5.79-.61,12.1-1.82,18.91l-7.44,42.59h-46.74l7.44-42.59c.37-2.04.56-3.86.56-5.45,0-7.61-3.74-11.47-11.23-11.58h-.28c-9.08,0-14.65,5.68-16.7,17.04l-4.63,26.58c-.19,1.14-.28,2.33-.28,3.58,0,11.58,9.4,25.73,28.21,42.42,18.25,16.01,27.37,34.7,27.37,56.05,0,4.54-.42,9.26-1.26,14.14l-6.46,37.14c-7.58,43.27-31.54,64.91-71.87,64.91-34.06-.11-51.1-15.44-51.1-46,0-5.79.61-12.1,1.83-18.91l7.44-42.59h46.74l-7.44,42.59c-.38,1.93-.56,3.75-.56,5.45,0,7.61,3.84,11.41,11.51,11.41,9.17,0,14.74-5.62,16.7-16.87l5.9-33.56c.28-1.36.42-2.73.42-4.09,0-12.38-9.36-26.86-28.07-43.44-18.16-16.01-27.23-34.87-27.23-56.56,0-4.77.42-9.65,1.26-14.65l4.77-27.6Z"/>
  <path fill="#fff" d="M1246.78,3.92l-8.28,47.87h-37.2l-44.22,252.31h-46.74l44.22-252.31h-37.2l8.28-47.87h121.14Z"/>
  <path fill="#fff" d="M879.6,162.25h-40.15L931.38,1.14c-4.53-.76-9.48-1.14-14.85-1.14-40.33,0-64.29,21.58-71.87,64.74l-31.44,179.91c-1.22,6.81-1.83,13.12-1.83,18.91,0,25.87,12.09,40.83,36.27,44.87l31.95-146.18Z"/>
  <path fill="#fff" d="M932.74,1.4l-32.8,141.22h40.15l-91.4,165.96c4.2.64,8.74.97,13.65.97,40.43-.11,64.43-21.75,72.01-64.91l31.44-179.91c1.21-6.81,1.82-13.12,1.82-18.91,0-25.24-11.64-40.04-34.88-44.43Z"/>
  <circle fill="#fff" cx="1221.84" cy="268.06" r="35.13"/>
</svg>
