<?xml version="1.0" encoding="UTF-8"?><svg id="Calque_2" xmlns="http://www.w3.org/2000/svg" viewBox="0 0 646.49 246.95"><defs><style>.cls-1{fill:none;}.cls-2{fill:#033877;}.cls-3{fill:#89e405;}</style></defs><g id="Calque_1-2"><g><g><path class="cls-1" d="m358.11,150.09c-.54,6.79,8.65,8.97,19.79,9.14-10.51-.18-19.27-2.4-19.79-9.14Z"/><polygon class="cls-1" points="339.84 80.49 341.88 48.43 341.3 48.43 331.97 80.49 323.51 108.98 338.38 108.98 339.84 80.49"/><path class="cls-2" d="m93.18,81.67l-28.57-19.47c-4.37-3.09-5.54-5.94-4.66-11.63l1.46-10.45c1.17-5.94,4.67-9.5,10.2-9.5,5.83,0,8.75,3.8,7.29,9.73l-3.5,21.84h43.15l3.79-22.08C126.71,15.67,107.47,0,73.36,0S20.88,14.24,17.09,39.17l-2.33,16.14c-2.33,14.96,2.92,24.45,17.2,33.95l27.7,18.76c4.67,3.09,5.83,6.17,4.67,11.87l-2.33,14.01c-1.17,6.65-4.37,9.73-10.2,9.73s-8.46-3.56-7.29-9.5l4.08-25.17H4.84L.47,134.85c-3.79,23.74,15.74,39.41,49.57,39.41s52.77-14.25,56.56-39.18l3.21-19.71c2.33-15.19-1.75-23.98-16.62-33.71Z"/><polygon class="cls-2" points="222.63 1.9 194.65 93.31 194.06 93.31 197.85 1.9 139.25 1.9 109.8 172.37 150.91 172.37 162.57 105.41 168.11 70.99 168.7 70.99 165.49 172.37 197.85 172.37 229.92 70.99 230.51 70.99 224.09 105.41 212.43 172.37 253.83 172.37 283.28 1.9 222.63 1.9"/><path class="cls-2" d="m379.78,1.9h-60.06l-58.31,170.47h43.15l10.2-34.19h22.16l-1.75,34.19h42.57l.16-13.14c-11.14-.17-20.33-2.34-19.79-9.14-.44-5.68,4.97-14.57,20.18-28.21m-46.32-41.4l9.33-32.05h.58l-2.04,32.05-1.46,28.49h-14.87l8.45-28.49Z"/><path class="cls-2" d="m494.66,172.37h45.19l9.57-56.03c-15.78,4.74-31.59,9.35-47.46,13.78l-7.3,42.25Z"/><path class="cls-2" d="m505.5,109.58c9.98-3.43,19.7-6.96,29-10.59,16.65-6.66,33.28-13.46,49.81-20.4,2.39-9.4,10.13-17.84,21.04-21.58,7.21-2.47,14.59-2.46,20.98-.45l9.44-54.65h-44.9l-11.66,66.24h-21.58l11.66-66.24h-45.19l-11.48,66.47c17.78-4.7,37.31-9.97,37.31-9.97l-39.17,20.75-5.26,30.42Z"/><path class="cls-2" d="m645.22,81.91c-.2-.6-.44-1.18-.69-1.75-.1,11.64-8.65,23.01-21.83,27.52-1.81.62-3.64,1.08-5.45,1.39-9.38,1.63-18.54-.7-24.95-5.98-1.5.47-3,.94-4.51,1.42-5.21,1.64-10.41,3.27-15.62,4.88l-10.75,62.97h44.9l9.2-53.27c3.02-.2,6.09-.8,9.13-1.84,16.15-5.53,25.35-21.36,20.56-35.35Z"/><path class="cls-2" d="m429.57,132.75l1.76-10.87,2.09-12.91h-43.73l-1.74,10.28-2.64,15.6c-.54,3.35-.59,6.54-.22,9.55,13.02-3.26,26.56-6.78,40.32-10.52,1.38-.38,2.77-.75,4.15-1.13Z"/><path class="cls-2" d="m491.45,135.09l.35-2.17c-8.2,2.25-16.41,4.47-24.64,6.62-16.72,4.26-33.44,8.42-50.35,11.81-8.36,1.68-16.76,3.18-25.22,4.38-.78.1-1.58.19-2.36.28.59.93,1.25,1.82,1.95,2.68,7.99,9.82,23.23,15.58,43.72,15.58,32.65,0,52.77-14.25,56.56-39.18Z"/><path class="cls-2" d="m416.81,89.27l8.62,5.84,14.32,9.7,4.76,3.22c4.66,3.09,5.83,6.17,4.66,11.87l-1.28,7.71c15.84-4.55,31.69-9.39,47.06-14.48,1.59-13.82-2.8-22.22-16.91-31.46l-28.57-19.47c-4.37-3.09-5.54-5.94-4.66-11.63l1.46-10.45c1.17-5.94,4.66-9.5,10.2-9.5,5.83,0,8.75,3.8,7.29,9.73l-3.5,21.84h43.15l3.79-22.08c4.37-24.45-14.87-40.12-48.98-40.12s-52.48,14.24-56.27,39.17l-2.33,16.14c-2.33,14.96,2.92,24.45,17.2,33.95Z"/><g><polygon class="cls-3" points="116.28 246.95 160.55 246.95 162.01 236.42 129.98 236.42 130.99 229 159.47 229 160.93 218.73 132.45 218.73 133.4 211.94 165.43 211.94 166.96 201.41 122.68 201.41 116.28 246.95"/><polygon class="cls-3" points="225.68 201.41 212.43 214.98 202.66 201.41 187.75 201.41 203.74 222.85 179.57 246.95 195.49 246.95 210.84 231.22 222.13 246.95 237.1 246.95 219.53 223.36 241.6 201.41 225.68 201.41"/><path class="cls-3" d="m304.52,205.34c-3.11-2.6-7.23-3.93-12.5-3.93h-27.97l-6.41,45.54h12.43l2.03-14.52h17.63c5.9,0,10.66-1.52,14.14-4.57,3.55-3.04,5.33-7.04,5.33-11.99,0-4.44-1.59-7.93-4.69-10.53Zm-14.97,16.75h-15.98l1.4-10.28h15.79c3.87,0,6.22,1.71,6.22,4.57,0,3.3-3.04,5.71-7.42,5.71Z"/><polygon class="cls-3" points="327.03 246.95 371.3 246.95 372.76 236.42 340.73 236.42 341.75 229 370.22 229 371.68 218.73 343.2 218.73 344.16 211.94 376.19 211.94 377.71 201.41 333.44 201.41 327.03 246.95"/><path class="cls-3" d="m441.32,205.22c-3.17-2.54-7.55-3.8-13.07-3.8h-27.78l-6.41,45.54h12.43l2.09-15.1h12.56l7.99,15.1h13.76l-8.94-16.17c4.97-1.48,8.6-4.4,10.55-8.25,1.06-2.1,1.63-4.46,1.63-7.03,0-.51-.03-.99-.07-1.47-.32-3.68-1.89-6.61-4.75-8.8Zm-14.84,16.81h-16.49l1.39-10.21h16.11c4.06,0,6.41,1.78,6.41,4.63,0,3.3-2.92,5.58-7.42,5.58Z"/><polygon class="cls-3" points="465.99 211.94 485.14 211.94 480.26 246.95 492.69 246.95 497.58 211.94 516.73 211.94 518.25 201.41 467.51 201.41 465.99 211.94"/></g></g><path class="cls-3" d="m634.58,83.14c-7.19,2.73-14.91-.07-17.26-6.24-1.91-5.03.34-10.75,5.12-14.17-4.69-1.2-10.02-.97-15.18.99-11.87,4.5-18.35,16.42-14.48,26.62,3.87,10.2,16.63,14.81,28.5,10.3,8.81-3.34,14.64-10.77,15.49-18.54-.69.39-1.42.74-2.19,1.03Z"/></g></g></svg>